<svg viewBox="0 0 2500 2500" xmlns="http://www.w3.org/2000/svg" fill-rule="evenodd" clip-rule="evenodd" stroke-linejoin="round" stroke-miterlimit="2"><path fill="#FFDD00" d="M1250 351.6c-561 0-1015.6 358.5-1015.6 800.7 0 286 190 536.9 476 678.5-15.5 53.7-100 345.2-103.3 368 0 0-2 17.3 9.1 23.9 11.2 6.5 24.3 1.4 24.3 1.4 32-4.4 370.5-242.3 429.1-283.6 58.6 8.3 118.8 12.6 180.4 12.6 561 0 1015.6-358.5 1015.6-800.8 0-442.2-454.7-800.7-1015.6-800.7zm-411.5 676.2a57.5 57.5 0 0 0 57.5-57.3 57.5 57.5 0 0 0-57.5-57.4h-300a57.5 57.5 0 0 0-57.5 57.4 57.5 57.5 0 0 0 57.5 57.3h91.4V1376c0 30.9 26.3 56 58.6 56a57.4 57.4 0 0 0 58.6-56v-348h91.4zm834.7 403.3a59 59 0 0 0 58.6-58.6v-127.8l20.3-20.4 137.4 182.1a58.2 58.2 0 0 0 82 11.5 58.2 58.2 0 0 0 11.6-82l-144.3-191.2 133.6-133.5a45.7 45.7 0 0 0 12.9-35.6c-.8-13.7-7-27-17.2-37.2a57.8 57.8 0 0 0-40.3-17.3c-12.6 0-24.1 4.6-32.5 13l-163.5 163.5v-126a58.7 58.7 0 0 0-117.2 0v401a58.7 58.7 0 0 0 58.6 58.5zm-471 0c13 0 25.6-2.7 37.3-8 16.2-7.5 31.7-28 13.9-83.4L1113.3 971c-10-28.1-40-57-78.2-57.9-38.2.9-68.1 29.8-78 57.8l-140.2 369c-17.8 55.2-2.2 75.7 14 83.1a89.4 89.4 0 0 0 37.2 8.1c24.4 0 43-9.9 48.7-25.8l29-76h178.7l29 76c5.6 15.9 24.3 25.8 48.8 25.8zm209-115.2V971.7a59.3 59.3 0 0 0-59.9-58.6c-33 0-59.8 26.3-59.8 58.6v398a55 55 0 0 0 56.2 53.6h188a55 55 0 0 0 56.1-53.7 55 55 0 0 0-56.2-53.7h-124.5zm-376-256.7l58.5 166.3h-117l58.5-166.3z"/></svg>
