<?xml version="1.0" encoding="utf-8"?>
<!-- Generator: Adobe Illustrator 21.1.0, SVG Export Plug-In . SVG Version: 6.00 Build 0)  -->
<svg version="1.1" id="Layer_1" xmlns="http://www.w3.org/2000/svg" xmlns:xlink="http://www.w3.org/1999/xlink" x="0px" y="0px"
	 viewBox="0 0 15 15" style="enable-background:new 0 0 15 15;" xml:space="preserve">
<style type="text/css">
	.st0{fill:#FFFFFF;}
</style>
<g>
	<g>
		<circle class="st0" cx="3.3" cy="6.5" r="0.5"/>
		<circle class="st0" cx="8.4" cy="6.4" r="0.6"/>
		<path class="st0" d="M9.1,11.3H13c1.1,0,2-0.9,2-2V2.8c0-1.1-0.9-2-2-2H2c-1.1,0-2,0.9-2,2v6.5c0,1.1,0.9,2,2,2h3.9l1.3,3.1
			c0,0,0.1,0.3,0.3,0.3h0c0.2,0,0.3-0.3,0.3-0.3L9.1,11.3z M4.7,6.6c0,1.2-1.2,1.2-1.2,1.2C3,7.8,2.8,7.5,2.8,7.5v0.2H1.9V4
			c0,0,0,0,0,0v0c0.1,0,0.9,0,0.9,0v1.4C3,5.1,3.6,5.1,3.6,5.1C4.9,5.2,4.7,6.6,4.7,6.6z M6.3,5.2v2.5H5.4V5.2C5.4,4.9,5,4.8,5,4.8
			V3.9C6.4,3.9,6.3,5.2,6.3,5.2z M8.4,7.8c-0.8,0-1.5-0.6-1.5-1.3s0.7-1.3,1.5-1.3c0.8,0,1.5,0.6,1.5,1.3S9.2,7.8,8.4,7.8z
			 M13.2,7.8c0,0,0,1.3-1.3,1.3h-0.4V8.2h0.2c0,0,0.5,0.1,0.5-0.8c0,0-0.1,0.3-0.9,0.3c0,0-1.1-0.1-1.1-1.1V6.2c0,0,0-1.1,1.2-1.2
			c0,0,0.5-0.1,0.8,0.3V5.1h0.9V7.8z"/>
		<circle class="st0" cx="11.8" cy="6.4" r="0.5"/>
	</g>
</g>
</svg>
