<?xml version="1.0" encoding="UTF-8"?>
<svg width="100px" height="21px" viewBox="0 0 100 21" version="1.1" xmlns="http://www.w3.org/2000/svg" xmlns:xlink="http://www.w3.org/1999/xlink">
    <!-- Generator: Sketch 46.2 (44496) - http://www.bohemiancoding.com/sketch -->
    <title>Group 25</title>
    <desc>Created with Sketch.</desc>
    <defs>
        <path d="M0.214,0.913 C0.089,0.913 0,1.015 0,1.127 L0.001,1.127 L0.001,8.581 C0.001,8.693 0.09,8.794 0.215,8.794 L4.337,8.794 C4.46,8.794 4.551,8.693 4.551,8.581 L4.551,7.658 C4.551,7.544 4.46,7.444 4.337,7.444 L1.465,7.444 L1.465,1.127 C1.465,1.015 1.363,0.913 1.25,0.913 L0.214,0.913 Z" id="path-1"></path>
        <path d="M3.716,0.913 L3.828,0.913 C3.942,0.913 3.987,0.97 4.019,1.036 L7.489,8.613 C7.554,8.76 7.465,8.907 7.296,8.907 L6.318,8.907 C6.148,8.907 6.069,8.839 5.991,8.681 L5.439,7.467 L2.072,7.467 L1.522,8.681 C1.475,8.794 1.373,8.907 1.194,8.907 L0.215,8.907 C0.045,8.907 -0.045,8.76 0.022,8.613 L3.524,1.036 C3.557,0.97 3.614,0.913 3.716,0.913 Z M3.727,3.738 L2.624,6.217 L4.887,6.217 L3.761,3.738 L3.727,3.738 Z" id="path-3"></path>
        <path d="M0.215,0.913 C0.09,0.913 0,1.013 0,1.126 L0,2.05 C0,2.163 0.09,2.263 0.215,2.263 L1.937,2.263 L1.937,8.58 C1.937,8.692 2.039,8.794 2.152,8.794 L3.197,8.794 C3.311,8.794 3.412,8.692 3.412,8.58 L3.412,2.263 L5.135,2.263 C5.258,2.263 5.348,2.163 5.348,2.05 L5.348,1.126 C5.348,1.013 5.258,0.913 5.135,0.913 L0.215,0.913 Z" id="path-5"></path>
        <path d="M0.215,0.913 C0.09,0.913 0,1.013 0,1.126 L0,2.05 C0,2.163 0.09,2.263 0.215,2.263 L1.938,2.263 L1.938,8.58 C1.938,8.692 2.039,8.794 2.151,8.794 L3.198,8.794 C3.31,8.794 3.412,8.692 3.412,8.58 L3.412,2.263 L5.135,2.263 C5.259,2.263 5.349,2.163 5.349,2.05 L5.349,1.126 C5.349,1.013 5.259,0.913 5.135,0.913 L0.215,0.913 Z" id="path-7"></path>
        <path d="M0.214,0.913 C0.09,0.913 0,1.015 0,1.127 L0,8.581 C0,8.693 0.09,8.794 0.214,8.794 L4.797,8.794 C4.919,8.794 5.01,8.693 5.01,8.581 L5.01,7.658 C5.01,7.544 4.919,7.444 4.797,7.444 L1.464,7.444 L1.464,5.473 L4.245,5.473 C4.357,5.473 4.458,5.383 4.458,5.259 L4.458,4.325 C4.458,4.212 4.357,4.111 4.245,4.111 L1.464,4.111 L1.464,2.264 L4.797,2.264 C4.919,2.264 5.01,2.163 5.01,2.051 L5.01,1.127 C5.01,1.015 4.919,0.913 4.797,0.913 L0.214,0.913 Z" id="path-9"></path>
        <path d="M0.562,4.112 C0.562,6.325 2.309,8.091 4.505,8.154 L4.749,8.154 C5.706,8.127 6.629,7.775 7.362,7.061 C7.402,7.02 7.429,6.961 7.431,6.904 L7.431,6.881 C7.429,6.835 7.411,6.79 7.374,6.758 L6.674,6.037 C6.606,5.968 6.484,5.958 6.393,6.037 C5.92,6.419 5.346,6.678 4.67,6.678 C3.228,6.678 2.147,5.484 2.147,4.077 C2.147,2.659 3.217,1.454 4.658,1.454 C5.288,1.454 5.919,1.701 6.392,2.118 C6.482,2.21 6.594,2.21 6.674,2.118 L7.359,1.41 C7.45,1.32 7.45,1.184 7.348,1.095 C6.582,0.408 5.761,0.047 4.624,0.047 C2.372,0.047 0.559,1.86 0.562,4.112 Z" id="path-11"></path>
        <path d="M0.215,0.913 L3.434,0.913 C4.786,0.913 5.889,1.993 5.889,3.334 C5.889,4.37 5.203,5.213 4.223,5.608 L5.765,8.468 C5.844,8.615 5.765,8.794 5.575,8.794 L4.393,8.794 C4.292,8.794 4.235,8.739 4.212,8.693 L2.715,5.708 L1.465,5.708 L1.465,8.581 C1.465,8.693 1.363,8.794 1.25,8.794 L0.214,8.794 C0.09,8.794 0,8.693 0,8.581 L0,1.126 L0.001,1.126 C0.001,1.015 0.091,0.913 0.215,0.913 Z M1.477,2.263 L1.477,4.505 L3.313,4.505 C3.909,4.505 4.427,3.985 4.427,3.354 C4.427,2.757 3.909,2.263 3.313,2.263 L1.477,2.263 Z" id="path-13"></path>
        <path d="M0.214,0.913 C0.09,0.913 0,1.015 0,1.127 L0,8.581 C0,8.693 0.09,8.794 0.214,8.794 L4.797,8.794 C4.92,8.794 5.009,8.693 5.009,8.581 L5.009,7.658 C5.009,7.544 4.92,7.444 4.797,7.444 L1.464,7.444 L1.464,5.473 L4.244,5.473 C4.358,5.473 4.459,5.383 4.459,5.259 L4.459,4.325 C4.459,4.212 4.358,4.111 4.244,4.111 L1.464,4.111 L1.464,2.264 L4.797,2.264 C4.92,2.264 5.009,2.163 5.009,2.051 L5.009,1.127 C5.009,1.015 4.92,0.913 4.797,0.913 L0.214,0.913 Z" id="path-15"></path>
        <path d="M3.715,0.913 L3.828,0.913 C3.941,0.913 3.986,0.97 4.02,1.036 L7.488,8.613 C7.557,8.76 7.465,8.907 7.296,8.907 L6.317,8.907 C6.147,8.907 6.069,8.839 5.992,8.681 L5.44,7.467 L2.072,7.467 L1.521,8.681 C1.474,8.794 1.373,8.907 1.194,8.907 L0.214,8.907 C0.045,8.907 -0.045,8.76 0.023,8.613 L3.525,1.036 C3.558,0.97 3.615,0.913 3.715,0.913 Z M3.726,3.738 L2.624,6.217 L4.886,6.217 L3.76,3.738 L3.726,3.738 Z" id="path-17"></path>
        <path d="M0.215,0.913 C0.089,0.913 0,1.013 0,1.126 L0,2.05 C0,2.163 0.089,2.263 0.215,2.263 L1.937,2.263 L1.937,8.58 C1.937,8.692 2.039,8.794 2.151,8.794 L3.197,8.794 C3.311,8.794 3.412,8.692 3.412,8.58 L3.412,2.263 L5.135,2.263 C5.259,2.263 5.349,2.163 5.349,2.05 L5.349,1.126 C5.349,1.013 5.259,0.913 5.135,0.913 L0.215,0.913 Z" id="path-19"></path>
        <path d="M0.214,0.913 C0.101,0.913 0,1.015 0,1.127 L0,8.581 C0,8.693 0.101,8.794 0.214,8.794 L1.261,8.794 C1.374,8.794 1.476,8.693 1.476,8.581 L1.476,1.127 C1.476,1.015 1.374,0.913 1.261,0.913 L0.214,0.913 Z" id="path-21"></path>
        <path d="M6.152,0.005 C6.05,0.005 5.982,0.073 5.96,0.13 L3.797,4.969 L3.72,4.969 L1.557,0.13 C1.535,0.073 1.467,0.005 1.366,0.005 L0.218,0.005 C0.048,0.005 -0.042,0.151 0.026,0.297 L3.505,7.875 C3.535,7.938 3.587,7.992 3.675,7.999 L3.83,7.999 C3.919,7.992 3.97,7.938 4,7.875 L7.492,0.297 C7.558,0.151 7.468,0.005 7.3,0.005 L6.152,0.005 Z" id="path-23"></path>
        <path d="M0.214,0.913 C0.09,0.913 0,1.015 0,1.127 L0,8.581 C0,8.693 0.09,8.794 0.214,8.794 L4.797,8.794 C4.92,8.794 5.009,8.693 5.009,8.581 L5.009,7.658 C5.009,7.544 4.92,7.444 4.797,7.444 L1.464,7.444 L1.464,5.473 L4.244,5.473 C4.358,5.473 4.459,5.383 4.459,5.259 L4.459,4.325 C4.459,4.212 4.358,4.111 4.244,4.111 L1.464,4.111 L1.464,2.264 L4.797,2.264 C4.92,2.264 5.009,2.163 5.009,2.051 L5.009,1.127 C5.009,1.015 4.92,0.913 4.797,0.913 L0.214,0.913 Z" id="path-25"></path>
        <path d="M0.153,0.913 L2.046,0.913 C3.679,0.913 5.013,2.24 5.013,3.863 C5.013,5.503 3.679,6.83 2.046,6.83 L0.153,6.83 C0.068,6.83 0,6.753 0,6.669 L0,1.073 C0,0.989 0.068,0.913 0.153,0.913 Z M0.642,1.488 L0.642,6.246 L1.911,6.246 C3.296,6.246 4.302,5.259 4.302,3.863 C4.302,2.477 3.296,1.488 1.911,1.488 L0.642,1.488 Z" id="path-27"></path>
        <path d="M0.16,0.913 C0.067,0.913 0,0.989 0,1.073 L0,6.668 C0,6.753 0.067,6.829 0.16,6.829 L3.49,6.829 C3.584,6.829 3.65,6.753 3.65,6.668 L3.65,6.422 C3.65,6.339 3.584,6.262 3.49,6.262 L0.65,6.262 L0.65,4.107 L3.076,4.107 C3.161,4.107 3.237,4.04 3.237,3.946 L3.237,3.701 C3.237,3.617 3.161,3.54 3.076,3.54 L0.65,3.54 L0.65,1.479 L3.49,1.479 C3.584,1.479 3.65,1.402 3.65,1.318 L3.65,1.073 C3.65,0.989 3.584,0.913 3.49,0.913 L0.16,0.913 Z" id="path-29"></path>
        <path d="M0.347,2.015 C0.347,2.98 0.904,3.361 1.834,3.766 C2.805,4.171 3.312,4.517 3.312,5.101 C3.312,5.599 2.864,6.03 2.181,6.03 C1.428,6.03 0.812,5.439 0.752,5.387 C0.634,5.286 0.541,5.354 0.457,5.464 C0.414,5.514 0.371,5.573 0.33,5.624 C0.228,5.785 0.312,5.854 0.382,5.911 C0.491,6.013 1.167,6.594 2.164,6.594 C3.154,6.594 3.989,5.953 3.989,5.074 C3.989,4.093 3.254,3.663 2.112,3.197 C1.402,2.902 0.972,2.572 0.972,2.006 C0.972,1.651 1.242,1.076 2.139,1.076 C2.654,1.076 3.186,1.432 3.245,1.466 C3.381,1.542 3.465,1.508 3.541,1.389 C3.574,1.338 3.609,1.279 3.642,1.228 C3.744,1.068 3.642,0.967 3.592,0.941 C3.592,0.941 2.974,0.509 2.147,0.509 C0.802,0.509 0.347,1.441 0.347,2.015 Z" id="path-31"></path>
        <path d="M0.161,0.913 C0.076,0.913 0,0.989 0,1.073 L0,6.668 C0,6.753 0.076,6.829 0.161,6.829 L0.498,6.829 C0.583,6.829 0.659,6.753 0.659,6.668 L0.659,1.073 C0.659,0.989 0.583,0.913 0.498,0.913 L0.161,0.913 Z" id="path-33"></path>
        <path d="M0.769,3.562 C0.769,5.253 2.131,6.598 3.822,6.598 C5.047,6.598 5.908,6.039 5.908,6.039 C5.942,6.013 5.976,5.945 5.976,5.903 L5.976,3.967 C5.976,3.882 5.908,3.808 5.824,3.808 L4.362,3.808 C4.268,3.808 4.201,3.874 4.201,3.967 L4.201,4.28 C4.201,4.364 4.268,4.432 4.362,4.432 L5.334,4.432 L5.334,5.615 C5.334,5.615 4.741,5.971 3.812,5.971 C2.478,5.971 1.462,4.83 1.462,3.528 C1.462,2.217 2.478,1.102 3.812,1.102 C4.378,1.102 4.986,1.38 5.417,1.761 C5.511,1.846 5.56,1.853 5.637,1.769 C5.705,1.693 5.798,1.609 5.874,1.533 C5.942,1.466 5.933,1.364 5.866,1.296 C5.29,0.805 4.674,0.51 3.819,0.51 C2.13,0.51 0.769,1.872 0.769,3.562 Z" id="path-35"></path>
        <path d="M0.304,0.51 C0.219,0.51 0.143,0.578 0.143,0.663 L0.143,6.352 C0.143,6.437 0.219,6.512 0.304,6.512 L0.599,6.512 C0.691,6.512 0.76,6.437 0.76,6.352 L0.76,1.755 L0.768,1.755 L4.648,6.598 L4.8,6.598 C4.884,6.598 4.96,6.53 4.96,6.444 L4.96,0.757 C4.96,0.671 4.884,0.596 4.8,0.596 L4.504,0.596 C4.41,0.596 4.343,0.671 4.343,0.757 L4.343,5.26 L4.327,5.26 L0.514,0.51 L0.304,0.51 Z" id="path-37"></path>
        <path d="M0.16,0.913 C0.068,0.913 0,0.989 0,1.073 L0,6.668 C0,6.753 0.068,6.829 0.16,6.829 L3.49,6.829 C3.584,6.829 3.65,6.753 3.65,6.668 L3.65,6.422 C3.65,6.339 3.584,6.262 3.49,6.262 L0.65,6.262 L0.65,4.107 L3.076,4.107 C3.161,4.107 3.237,4.04 3.237,3.946 L3.237,3.701 C3.237,3.617 3.161,3.54 3.076,3.54 L0.65,3.54 L0.65,1.479 L3.49,1.479 C3.584,1.479 3.65,1.402 3.65,1.318 L3.65,1.073 C3.65,0.989 3.584,0.913 3.49,0.913 L0.16,0.913 Z" id="path-39"></path>
        <path d="M0.152,0.913 L2.046,0.913 C3.679,0.913 5.013,2.24 5.013,3.863 C5.013,5.503 3.679,6.83 2.046,6.83 L0.152,6.83 C0.068,6.83 0,6.753 0,6.669 L0,1.073 C0,0.989 0.068,0.913 0.152,0.913 Z M0.643,1.488 L0.643,6.246 L1.911,6.246 C3.297,6.246 4.302,5.259 4.302,3.863 C4.302,2.477 3.297,1.488 1.911,1.488 L0.643,1.488 Z" id="path-41"></path>
        <path d="M4.175,0.51 C4.098,0.51 4.049,0.553 4.031,0.604 L2.62,5.09 L2.586,5.09 L1.411,0.714 C1.396,0.653 1.327,0.595 1.26,0.595 L0.905,0.595 C0.786,0.595 0.72,0.678 0.753,0.797 L2.35,6.478 C2.365,6.546 2.434,6.596 2.501,6.596 L2.636,6.596 C2.695,6.596 2.755,6.554 2.779,6.502 L4.218,1.93 L4.259,1.93 L5.722,6.502 C5.747,6.554 5.806,6.596 5.865,6.596 L6,6.596 C6.069,6.596 6.135,6.546 6.152,6.478 L7.749,0.797 C7.782,0.678 7.716,0.595 7.597,0.595 L7.242,0.595 C7.175,0.595 7.106,0.653 7.091,0.714 L5.942,5.09 L5.908,5.09 L4.471,0.604 C4.454,0.553 4.395,0.51 4.327,0.51 L4.175,0.51 Z" id="path-43"></path>
        <path d="M0.16,0.913 C0.076,0.913 0,0.989 0,1.073 L0,6.668 C0,6.753 0.076,6.829 0.16,6.829 L0.499,6.829 C0.583,6.829 0.66,6.753 0.66,6.668 L0.66,1.073 C0.66,0.989 0.583,0.913 0.499,0.913 L0.16,0.913 Z" id="path-45"></path>
        <path d="M0.163,0.913 C0.068,0.913 0,0.989 0,1.073 L0,1.318 C0,1.402 0.068,1.479 0.163,1.479 L1.631,1.479 L1.633,1.479 L1.633,6.668 C1.633,6.753 1.709,6.829 1.793,6.829 L2.115,6.829 C2.198,6.829 2.275,6.753 2.275,6.668 L2.275,1.479 L3.745,1.479 C3.838,1.479 3.907,1.402 3.907,1.318 L3.907,1.073 C3.907,0.989 3.838,0.913 3.745,0.913 L0.163,0.913 Z" id="path-47"></path>
        <path d="M4.769,0.595 C4.676,0.595 4.608,0.671 4.608,0.756 L4.608,3.224 L1.178,3.224 L1.178,0.756 C1.178,0.671 1.111,0.595 1.017,0.595 L0.688,0.595 C0.604,0.595 0.527,0.671 0.527,0.756 L0.527,6.35 C0.527,6.437 0.604,6.51 0.688,6.51 L1.017,6.51 C1.111,6.51 1.178,6.437 1.178,6.35 L1.178,3.789 L4.608,3.789 L4.608,6.35 C4.608,6.437 4.676,6.51 4.769,6.51 L5.099,6.51 C5.184,6.51 5.26,6.437 5.26,6.35 L5.26,0.756 C5.26,0.671 5.184,0.595 5.099,0.595 L4.769,0.595 Z" id="path-49"></path>
    </defs>
    <g id="DESKTOP/MOBILE-MOCKUP" stroke="none" stroke-width="1" fill="none" fill-rule="evenodd">
        <g id="DESKTOP_LANDING_MSW_review" transform="translate(-998.000000, -5920.000000)">
            <g id="Group-13" transform="translate(99.000000, 5887.000000)">
                <g id="Group-25" transform="translate(899.000000, 32.000000)">
                    <g id="Page-1">
                        <g id="Group-3" transform="translate(0.000000, 12.490100)">
                            <mask id="mask-2" fill="white">
                                <use xlink:href="#path-1"></use>
                            </mask>
                            <g id="Clip-2"></g>
                            <polygon id="Fill-1" fill="#FFFFFF" mask="url(#mask-2)" points="-5 13.795 9.551 13.795 9.551 -4.087 -5 -4.087"></polygon>
                        </g>
                        <g id="Group-6" transform="translate(7.000000, 12.490100)">
                            <mask id="mask-4" fill="white">
                                <use xlink:href="#path-3"></use>
                            </mask>
                            <g id="Clip-5"></g>
                            <polygon id="Fill-4" fill="#FFFFFF" mask="url(#mask-4)" points="-5 13.907 12.51 13.907 12.51 -4.087 -5 -4.087"></polygon>
                        </g>
                        <g id="Group-9" transform="translate(15.000000, 12.490100)">
                            <mask id="mask-6" fill="white">
                                <use xlink:href="#path-5"></use>
                            </mask>
                            <g id="Clip-8"></g>
                            <polygon id="Fill-7" fill="#FFFFFF" mask="url(#mask-6)" points="-5 13.794 10.349 13.794 10.349 -4.087 -5 -4.087"></polygon>
                        </g>
                        <g id="Group-12" transform="translate(22.000000, 12.490100)">
                            <mask id="mask-8" fill="white">
                                <use xlink:href="#path-7"></use>
                            </mask>
                            <g id="Clip-11"></g>
                            <polygon id="Fill-10" fill="#FFFFFF" mask="url(#mask-8)" points="-5 13.794 10.349 13.794 10.349 -4.087 -5 -4.087"></polygon>
                        </g>
                        <g id="Group-15" transform="translate(30.000000, 12.490100)">
                            <mask id="mask-10" fill="white">
                                <use xlink:href="#path-9"></use>
                            </mask>
                            <g id="Clip-14"></g>
                            <polygon id="Fill-13" fill="#FFFFFF" mask="url(#mask-10)" points="-5 13.795 10.01 13.795 10.01 -4.087 -5 -4.087"></polygon>
                        </g>
                        <g id="Group-18" transform="translate(40.000000, 12.490100)">
                            <mask id="mask-12" fill="white">
                                <use xlink:href="#path-11"></use>
                            </mask>
                            <g id="Clip-17"></g>
                            <polygon id="Fill-16" fill="#FFFFFF" mask="url(#mask-12)" points="-4.438 13.155 12.432 13.155 12.432 -4.952 -4.438 -4.952"></polygon>
                        </g>
                        <g id="Group-21" transform="translate(50.000000, 12.490100)">
                            <mask id="mask-14" fill="white">
                                <use xlink:href="#path-13"></use>
                            </mask>
                            <g id="Clip-20"></g>
                            <polygon id="Fill-19" fill="#FFFFFF" mask="url(#mask-14)" points="-5 13.795 10.89 13.795 10.89 -4.087 -5 -4.087"></polygon>
                        </g>
                        <g id="Group-24" transform="translate(58.000000, 12.490100)">
                            <mask id="mask-16" fill="white">
                                <use xlink:href="#path-15"></use>
                            </mask>
                            <g id="Clip-23"></g>
                            <polygon id="Fill-22" fill="#FFFFFF" mask="url(#mask-16)" points="-5 13.795 10.01 13.795 10.01 -4.087 -5 -4.087"></polygon>
                        </g>
                        <g id="Group-27" transform="translate(65.000000, 12.490100)">
                            <mask id="mask-18" fill="white">
                                <use xlink:href="#path-17"></use>
                            </mask>
                            <g id="Clip-26"></g>
                            <polygon id="Fill-25" fill="#FFFFFF" mask="url(#mask-18)" points="-5 13.907 12.511 13.907 12.511 -4.087 -5 -4.087"></polygon>
                        </g>
                        <g id="Group-30" transform="translate(73.000000, 12.490100)">
                            <mask id="mask-20" fill="white">
                                <use xlink:href="#path-19"></use>
                            </mask>
                            <g id="Clip-29"></g>
                            <polygon id="Fill-28" fill="#FFFFFF" mask="url(#mask-20)" points="-5 13.794 10.349 13.794 10.349 -4.087 -5 -4.087"></polygon>
                        </g>
                        <g id="Group-33" transform="translate(81.000000, 12.490100)">
                            <mask id="mask-22" fill="white">
                                <use xlink:href="#path-21"></use>
                            </mask>
                            <g id="Clip-32"></g>
                            <polygon id="Fill-31" fill="#FFFFFF" mask="url(#mask-22)" points="-5 13.795 6.476 13.795 6.476 -4.087 -5 -4.087"></polygon>
                        </g>
                        <g id="Group-36" transform="translate(85.000000, 13.490100)">
                            <mask id="mask-24" fill="white">
                                <use xlink:href="#path-23"></use>
                            </mask>
                            <g id="Clip-35"></g>
                            <polygon id="Fill-34" fill="#FFFFFF" mask="url(#mask-24)" points="-4.997 13 12.514 13 12.514 -4.995 -4.997 -4.995"></polygon>
                        </g>
                        <g id="Group-39" transform="translate(94.000000, 12.490100)">
                            <mask id="mask-26" fill="white">
                                <use xlink:href="#path-25"></use>
                            </mask>
                            <g id="Clip-38"></g>
                            <polygon id="Fill-37" fill="#FFFFFF" mask="url(#mask-26)" points="-5 13.795 10.01 13.795 10.01 -4.087 -5 -4.087"></polygon>
                        </g>
                        <g id="Group-42" transform="translate(26.000000, 0.490100)">
                            <mask id="mask-28" fill="white">
                                <use xlink:href="#path-27"></use>
                            </mask>
                            <g id="Clip-41"></g>
                            <polygon id="Fill-40" fill="#FFFFFF" mask="url(#mask-28)" points="-5 11.83 10.013 11.83 10.013 -4.087 -5 -4.087"></polygon>
                        </g>
                        <g id="Group-45" transform="translate(33.000000, 0.490100)">
                            <mask id="mask-30" fill="white">
                                <use xlink:href="#path-29"></use>
                            </mask>
                            <g id="Clip-44"></g>
                            <polygon id="Fill-43" fill="#FFFFFF" mask="url(#mask-30)" points="-5 11.829 8.65 11.829 8.65 -4.087 -5 -4.087"></polygon>
                        </g>
                        <g id="Group-48" transform="translate(39.000000, 0.490100)">
                            <mask id="mask-32" fill="white">
                                <use xlink:href="#path-31"></use>
                            </mask>
                            <g id="Clip-47"></g>
                            <polygon id="Fill-46" fill="#FFFFFF" mask="url(#mask-32)" points="-4.718 11.594 8.989 11.594 8.989 -4.491 -4.718 -4.491"></polygon>
                        </g>
                        <g id="Group-51" transform="translate(45.000000, 0.490100)">
                            <mask id="mask-34" fill="white">
                                <use xlink:href="#path-33"></use>
                            </mask>
                            <g id="Clip-50"></g>
                            <polygon id="Fill-49" fill="#FFFFFF" mask="url(#mask-34)" points="-5 11.829 5.659 11.829 5.659 -4.087 -5 -4.087"></polygon>
                        </g>
                        <g id="Group-54" transform="translate(47.000000, 0.490100)">
                            <mask id="mask-36" fill="white">
                                <use xlink:href="#path-35"></use>
                            </mask>
                            <g id="Clip-53"></g>
                            <polygon id="Fill-52" fill="#FFFFFF" mask="url(#mask-36)" points="-4.231 11.597 10.977 11.597 10.977 -4.49 -4.231 -4.49"></polygon>
                        </g>
                        <g id="Group-57" transform="translate(55.000000, 0.490100)">
                            <mask id="mask-38" fill="white">
                                <use xlink:href="#path-37"></use>
                            </mask>
                            <g id="Clip-56"></g>
                            <polygon id="Fill-55" fill="#FFFFFF" mask="url(#mask-38)" points="-4.857 11.597 9.96 11.597 9.96 -4.49 -4.857 -4.49"></polygon>
                        </g>
                        <g id="Group-60" transform="translate(62.000000, 0.490100)">
                            <mask id="mask-40" fill="white">
                                <use xlink:href="#path-39"></use>
                            </mask>
                            <g id="Clip-59"></g>
                            <polygon id="Fill-58" fill="#FFFFFF" mask="url(#mask-40)" points="-5 11.829 8.65 11.829 8.65 -4.087 -5 -4.087"></polygon>
                        </g>
                        <g id="Group-63" transform="translate(68.000000, 0.490100)">
                            <mask id="mask-42" fill="white">
                                <use xlink:href="#path-41"></use>
                            </mask>
                            <g id="Clip-62"></g>
                            <polygon id="Fill-61" fill="#FFFFFF" mask="url(#mask-42)" points="-5 11.83 10.013 11.83 10.013 -4.087 -5 -4.087"></polygon>
                        </g>
                        <g id="Group-66" transform="translate(77.000000, 0.490100)">
                            <mask id="mask-44" fill="white">
                                <use xlink:href="#path-43"></use>
                            </mask>
                            <g id="Clip-65"></g>
                            <polygon id="Fill-64" fill="#FFFFFF" mask="url(#mask-44)" points="-4.256 11.596 12.758 11.596 12.758 -4.49 -4.256 -4.49"></polygon>
                        </g>
                        <g id="Group-69" transform="translate(86.000000, 0.490100)">
                            <mask id="mask-46" fill="white">
                                <use xlink:href="#path-45"></use>
                            </mask>
                            <g id="Clip-68"></g>
                            <polygon id="Fill-67" fill="#FFFFFF" mask="url(#mask-46)" points="-5 11.829 5.659 11.829 5.659 -4.087 -5 -4.087"></polygon>
                        </g>
                        <g id="Group-72" transform="translate(89.000000, 0.490100)">
                            <mask id="mask-48" fill="white">
                                <use xlink:href="#path-47"></use>
                            </mask>
                            <g id="Clip-71"></g>
                            <polygon id="Fill-70" fill="#FFFFFF" mask="url(#mask-48)" points="-5 11.829 8.906 11.829 8.906 -4.087 -5 -4.087"></polygon>
                        </g>
                        <g id="Group-75" transform="translate(94.000000, 0.490100)">
                            <mask id="mask-50" fill="white">
                                <use xlink:href="#path-49"></use>
                            </mask>
                            <g id="Clip-74"></g>
                            <polygon id="Fill-73" fill="#FFFFFF" mask="url(#mask-50)" points="-4.473 11.51 10.259 11.51 10.259 -4.406 -4.473 -4.406"></polygon>
                        </g>
                    </g>
                </g>
            </g>
        </g>
    </g>
</svg>