<svg xmlns="http://www.w3.org/2000/svg" width="185" height="20" viewBox="0 0 185 20">
  <path fill="#66cc00" fill-rule="evenodd" d="M152.283455,10.3317886 C152.25247,10.4212579 152.221224,10.5115356 152.189895,10.6024184 C152.06478,10.9613984 151.821531,11.3856942 151.566469,11.6330715 C151.266838,11.9210784 150.793228,12.6647532 150.48769,12.3566887 C150.421106,12.2924015 150.319081,12.2044565 150.207927,12.1087971 C150.18967,12.1175402 150.174098,12.1247404 150.155841,12.134512 C149.709616,12.3469171 149.099078,12.3587459 148.746824,12.4878347 C148.577677,12.5480076 147.781347,12.702297 147.781347,12.702297 C147.781347,12.702297 146.806204,12.9306453 146.522145,13.0571626 C146.032963,13.2700819 146.574768,13.2294524 145.903015,13.316883 C145.678023,13.3477409 144.992846,13.1523077 144.987476,13.0242475 C144.985865,12.963046 144.923576,12.8565863 144.863972,12.7670985 C144.82531,12.9969897 144.804368,13.1847084 144.802757,13.2911681 C144.790944,13.9957563 144.992846,14.3346787 145.9696,14.7198879 C146.674108,15.0027517 147.990229,14.6684581 148.908453,14.3876514 C149.934608,14.0811298 150.520446,13.7370645 150.520446,13.7370645 C150.567162,13.7180354 151.217437,13.3929991 151.409673,12.9100733 C151.517067,12.6565244 152.114718,13.7787226 152.193653,13.9957563 C152.422404,14.6108567 151.854823,15.7680271 151.854823,15.7680271 C151.579893,16.0035756 150.466211,16.5945039 149.223656,16.7961087 C147.840951,17.0265142 146.560807,17.1592031 145.227503,16.646448 C144.760874,16.4695295 144.088583,16.1645508 143.854463,15.8245999 C143.540334,15.3648175 142.83851,14.9317786 142.745614,14.2210188 C142.694065,13.8532958 142.874488,13.2664818 142.982956,12.7424122 C143.134919,12.0280523 143.115051,11.8228475 143.235333,11.4016374 C143.333599,11.0637437 143.429718,10.7952801 143.524762,10.5612746 L142.436855,11.0179711 C142.436855,11.0179711 141.91975,10.8117377 141.577698,10.5664175 C141.238331,10.3154401 140.991323,9.60673755 141.000452,9.41644731 C141.008506,9.22667136 141.553534,9.10992572 141.553534,9.10992572 L142.480349,8.83220483 C142.570561,8.80391844 142.741318,8.75300294 142.951275,8.69025859 L144.038645,8.15230293 C146.01739,7.11907833 147.075227,6.30391606 147.296997,6.01590921 C147.721206,5.6142425 148.104067,5.15497443 147.995599,5.15497443 C147.511786,5.15497443 145.96423,5.67081528 145.795084,5.70424464 C144.880082,6.98381796 144.651868,7.26976763 144.522458,7.34691232 C144.332906,7.45748638 143.429718,7.60611849 143.015711,7.31759734 C142.595799,7.03164767 142.334293,6.91850212 142.519548,6.65003859 C142.793942,6.25660065 143.202578,5.71247341 143.45066,5.29074909 C143.783583,4.73993597 144.779131,3.19344201 144.953647,2.80823284 L145.750515,1.22419513 L145.890128,1.07402013 C145.986783,1.05807689 146.317021,0.780355994 146.974813,1.41551397 C147.336733,1.76420799 147.584277,1.94164078 147.591258,1.98278462 C147.595017,2.04244318 147.811954,2.4657104 147.809269,2.5659985 C147.804973,2.72697377 147.788327,2.79948978 147.700801,2.91212103 C147.700801,2.91212103 147.067172,3.67328201 146.869029,3.99163244 C147.463459,3.89700162 147.896796,3.6254523 148.577677,3.48813474 C149.020143,3.26081505 149.64518,3.19344201 149.799828,3.44287652 C150.060797,3.85842927 150.410366,4.41438537 150.421106,4.87159625 C150.426475,5.14468847 150.000656,5.53606921 149.86158,5.70424464 C149.73915,5.85390535 149.351455,6.30803045 149.055583,6.56775092 C148.884289,6.71278294 148.666815,6.90873046 148.455785,7.09593492 C149.938904,6.67009621 151.213141,6.30803045 151.59815,6.20722805 C151.833345,6.14602659 152.129754,6.59912309 152.282254,6.69323962 C152.487378,6.81409964 152.980319,7.34948381 153.000207,7.76040788 C153.000724,7.84526704 152.990521,7.83446679 152.96421,8.04224316 C152.947302,8.1723695 152.916787,8.32138215 152.875602,8.48591695 C153.094276,8.42913332 153.322562,8.37336699 153.645766,8.29662056 C154.218237,8.12579351 155.780725,7.59410083 157.432346,6.95233115 C157.488585,6.05717667 157.541641,5.25132995 157.575596,4.77363731 C156.800984,5.09348369 156.199864,5.32817616 156.050778,5.32817616 C155.726608,5.32817616 155.077207,4.72638727 154.864454,4.56542562 L154.780096,4.37746395 L154.803971,4.23934847 C154.819357,4.21027153 154.923876,4.05346372 155.23266,3.86550205 C155.650738,3.60848264 157.153274,2.60740501 157.935844,2.04507769 C157.971922,2.01236613 159.014465,1.14784629 159.014465,1.14784629 L159.495149,1.00298081 C159.712146,0.980653867 160.072925,1.08917317 160.166302,1.14784629 C160.801378,1.5549235 161.808905,2.45786645 161.678918,2.81250131 C161.551585,3.14480924 160.083536,3.74192504 159.404424,4.01088677 C159.534941,4.10382914 159.745041,4.26998311 159.774752,4.41121398 C159.819849,4.61942566 159.778466,5.03792595 159.778466,5.03792595 L159.724349,5.87908039 L159.703127,6.22021525 C159.730716,6.21138832 159.754591,6.20515755 159.781119,6.19373446 C159.90633,6.11065748 160.93667,5.49277243 161.219987,5.87959962 C161.58501,6.38740767 161.806782,6.63611939 161.808905,6.65688863 L161.815802,6.68440788 L161.758502,7.34642758 L161.652921,7.39471608 C161.631699,7.40198531 160.786523,7.76440864 159.781119,8.19381279 L159.863355,8.63931311 L159.493027,9.55523683 L159.470743,9.88442937 L159.760958,10.1668911 L160.97434,10.7406415 C161.782907,11.3201035 162.173927,11.6991422 161.926688,12.5330274 C161.831188,12.8559892 161.390826,13.4962011 161.198765,13.5590281 C161.001929,13.6244512 160.704286,13.4681627 160.704286,13.4681627 L159.316351,12.2614695 L159.10519,15.5051064 C159.108904,15.5383372 159.132779,16.3312031 158.530067,16.782415 C157.908786,17.2466076 156.988271,16.8270689 156.945826,16.8052612 L156.803637,16.7393188 L156.881629,16.2808377 C156.881629,16.2538377 157.040796,14.2906248 157.137357,12.7209891 C156.936276,13.0335662 156.715034,13.3487395 156.472039,13.6436628 L155.830597,14.2698555 C155.467697,14.5419326 154.94669,14.828029 154.709001,14.8160867 C154.092495,14.7859713 153.694047,14.6364327 153.671233,14.6192981 L153.140146,14.318144 C153.004854,14.1758747 153.017588,13.9313168 153.092396,13.8960091 C153.136963,13.8736822 153.535941,13.6260089 153.724289,13.4702396 C154.084006,13.1716817 154.374751,12.8513161 154.751976,12.4011427 C155.124427,11.9655078 156.137258,10.6414684 156.961743,9.40050595 C156.700179,9.51162141 156.513423,9.59262147 156.447103,9.61962149 C155.352035,10.0848526 153.790608,10.9524878 153.288172,10.7359684 C153.016412,10.620174 152.544336,10.5537121 152.283455,10.3317886 Z M48.9994201,4.11342824 C49.0070419,4.58208691 48.9617897,5.08870817 48.753383,5.44427975 C47.8874417,5.57472039 46.9974465,5.64802587 46.0850009,5.81458025 C45.1474324,5.703544 44.2579717,6.11265328 43.2968838,6.11265328 C42.8163398,6.31478237 42.3117419,6.48025873 42.0952566,6.90715537 C41.8547174,7.22139873 41.8071441,7.74154427 41.4939085,8.01805687 C41.518497,8.12963213 41.6147127,8.20293761 41.7109284,8.20293761 C43.1290409,8.16574586 44.6187806,7.70435251 45.580403,7.14755424 C45.9176925,7.22139873 46.229859,7.37124377 46.4228249,7.66554373 C46.5890643,7.96146072 46.8296035,8.2767821 46.9279573,8.68481337 C47.0466234,8.814715 47.0466234,8.962943 47.1909469,9.12949737 C47.2625742,9.703544 47.3593244,10.4991241 46.8296035,10.9244037 C45.7252611,11.2213987 44.6914769,11.8126937 43.4903843,11.628891 C42.7190551,12.073575 41.6382321,12.0363832 40.6782132,12.1840722 C40.5098357,12.2945695 40.1730808,12.2945695 40.0538802,12.4061447 C40.0041688,12.4810672 40.0041688,12.5355073 39.9084876,12.5726991 C39.7887525,12.7769842 39.7887525,13.0917666 40.0041688,13.2949737 C40.6530902,13.6836006 41.687409,13.8690203 42.5758006,13.6652742 C42.9841828,13.4992589 43.3439226,13.406549 43.6822811,13.2949737 L44.330668,12.7769842 L44.4514722,12.7769842 L44.9795895,13.3698962 L45.1966093,13.6097561 C45.5574182,14.4797197 45.7958193,15.4246058 45.5328297,16.3883574 C45.4601334,17.1839375 44.3547219,17.2761083 43.7298544,17.5925077 L43.2493105,17.9628082 L42.624443,17.5369896 C42.5758006,17.5741814 42.5282273,17.5741814 42.5282273,17.5925077 L42.3609189,18 L42.3117419,18 L42.287688,18 L41.7830901,17.6302385 C41.7109284,17.6474869 41.687409,17.6647352 41.6382321,17.704622 L41.2549729,17.704622 C40.6060514,17.4421237 39.9560609,17.1839375 39.1879389,17.1656111 C38.1792777,16.8502897 38.3214631,15.8121547 37.6019835,15.2580515 C36.977116,14.3320307 36.8809003,13.1483628 37.1214396,12.073575 C37.5057678,10.6840049 37.5533411,9.22059022 38.0354887,7.8320981 C38.2027971,7.66554373 38.1792777,7.42622288 38.3465861,7.22139873 C38.4192824,7.01765261 38.5871254,6.94434712 38.5871254,6.70448727 C38.7068605,6.48025873 38.7549683,6.23985986 38.876307,5.96388627 C39.0190269,5.42487535 39.2125274,4.83250236 39.0441499,4.29564749 C39.1879389,3.98140412 39.4519976,3.83263711 39.7887525,3.57445088 C40.3174043,3.18420698 41.1101148,2.94488613 41.9509331,2.85163725 C43.224722,2.77833176 44.330668,2.31424336 45.5574182,2.14768899 C45.9176925,2.12936262 46.3966329,2.01832637 46.9022998,2 C47.5031134,2.01832637 48.0568882,2.24093788 48.3679856,2.59345102 C48.3212364,3.06433109 48.6920713,3.50346076 48.9778236,3.88680034 C48.933694,3.18402739 49.0925715,2.48196297 49.1828037,1.74678219 C49.3508752,1.29273538 49.6614884,1.00186992 50.1880417,0.764515224 C51.1454113,0.673917786 51.7432354,1.16452146 52.3405276,1.45697635 C52.7474096,2.53037056 52.4352008,3.6223081 52.6527364,4.76934584 C52.8186805,5.38710381 53.1537598,5.8787671 53.4877754,6.45996821 C54.1802727,7.2446162 54.731824,8.06370181 55.4014508,8.75404369 C55.4732535,8.75404369 55.496124,8.73603017 55.496124,8.73603017 C55.9753407,6.27930314 55.6402613,3.64085144 56.2614878,1.23763518 C56.4779597,1.09352697 56.8598438,1.00186992 57.2183255,1.03895659 C57.7922153,1.12743479 58.1028286,1.58201141 58.3895076,1.85751239 C58.4841808,2.18493471 58.3655733,2.6045439 58.6533161,2.85832269 C58.7245869,2.85832269 58.7485211,2.83924954 58.7963896,2.82070621 L59.322411,1.94705021 L59.513353,1.85751239 L60.1840436,1.74678219 C60.2781849,1.67472808 60.3505195,1.58201141 60.4223222,1.40134634 C60.6611328,1.16452146 61.0201463,1.21962165 61.2839548,1.23763518 L61.7142393,1.01935363 C61.8817789,0.94623991 62.1189938,1.00186992 62.1918603,1.07392402 C62.2168583,1.09352697 62.2168583,1.14703774 62.2168583,1.16452146 C62.6221447,1.36478948 63.2210326,1.14703774 63.5784505,1.01935363 C63.626319,0.94623991 63.6507851,0.838688565 63.7215241,0.783588369 L66.0165517,0.783588369 L66.2096212,0.583320348 L66.8776524,0.617757971 C67.0696582,0.764515224 67.4754765,0.783588369 67.6903528,0.710474647 C67.7403487,0.673917786 67.7637511,0.638420544 67.835022,0.617757971 C67.9062928,0.638420544 67.930227,0.673917786 68.0030935,0.747031508 C68.4083799,1.00186992 69.0540725,1.01935363 69.5566915,0.94623991 C69.5566915,0.965313055 69.6040281,1.01935363 69.6040281,1.01935363 L70.7278736,1.34730576 C71.0868872,1.72929847 71.4214347,2.14943747 71.6139723,2.63951133 C71.7081137,2.83924954 71.8288486,2.96693365 71.8756534,3.1852152 C72.4272046,4.25913922 72.1165914,5.38710381 72.1165914,6.42447097 C72.1873303,6.42447097 72.2107327,6.42447097 72.2107327,6.40645744 C72.4745412,6.0059214 72.7362222,5.57041793 72.9750327,5.11637112 C73.144168,4.85994328 73.2861778,4.58656154 73.405849,4.22258235 C73.5510501,3.64085144 73.7893287,2.96693365 74.0515416,2.40321626 C74.074944,2.31314863 74.1717447,2.27447253 74.2430155,2.18493471 C75.3439905,1.58201141 77.1358672,1.62068751 78.524053,1.12743479 L82.4466089,9.23705556e-14 L83.2109089,0.491133481 L83.2832435,1.09352697 C83.3784486,1.14703774 83.4486557,1.14703774 83.4741855,1.16452146 L83.5683269,1.72929847 C83.6167272,1.80188238 83.7124642,1.85751239 83.7847987,1.87446629 L83.9523384,1.87446629 C83.9741452,2.00268021 83.8082011,2.11182099 83.8310716,2.24109452 L84.0002069,2.45725683 C83.8789401,2.73063858 83.8789401,3.04057718 83.9523384,3.36588026 C83.7847987,3.6943622 83.6167272,4.00589024 83.2109089,4.09489825 C83.185379,4.13251473 83.1391062,4.1865553 83.1146401,4.1865553 L83.0423055,4.13251473 C82.9471004,4.1865553 82.9471004,4.20350921 82.8981682,4.22258235 L77.4230781,5.38710381 L75.894478,5.78975909 C75.8700119,5.84379967 75.8700119,5.89784025 75.8700119,5.95135101 L74.9365766,7.28011344 C74.9833813,7.46289775 75.1769827,7.57309814 75.2471898,7.69972263 C76.9220547,7.79032007 78.8809391,7.37124069 80.0308463,6.53520117 L80.1489219,6.53520117 C80.4595352,6.62473899 80.6536684,6.80646368 80.8201444,7.00779132 L80.8201444,7.13494562 C81.0578911,7.49839499 81.0818254,7.91853399 81.320104,8.35509708 C81.4169047,8.93735781 81.3929705,9.71882694 80.8201444,10.1564497 C80.746746,10.2295634 80.6754752,10.1739334 80.6536684,10.2104902 C80.6270748,10.2481067 80.555804,10.3021473 80.5084674,10.3021473 L78.6910608,10.6846698 L78.2602445,10.6655967 L77.9033584,10.8118241 C77.3964845,10.8118241 76.9220547,10.8293078 76.3955014,10.9575217 C75.8700119,11.1572599 75.2003851,11.2303737 74.6493657,11.2303737 C74.602561,11.2674603 74.5780949,11.2844142 74.5307583,11.3199115 C74.0047369,11.3199115 73.5510501,11.5222988 73.3340463,11.8126344 C73.3340463,11.8126344 73.3101121,11.9032318 73.3101121,11.9397887 C73.2170345,12.5951632 74.0988782,12.8134447 74.5307583,13.1429863 L75.2471898,13.1429863 C75.296122,13.1027207 75.296122,13.0502696 75.3673929,13.0502696 L78.4522503,11.9397887 C79.0500744,12.2497273 79.2176141,13.0317262 79.3612195,13.6325303 C79.4324904,14.5427432 79.4324904,15.7099137 78.1655713,16.1623711 C77.6634842,16.3255524 77.2316041,16.5809206 76.8736543,16.8193349 C75.8700119,16.8717861 74.7679732,16.9104622 73.8834701,16.6566834 C73.9329342,16.6566834 73.813263,16.5809206 73.813263,16.5809206 C73.7164623,16.6174775 73.6441277,16.6005236 73.6223209,16.5459532 C72.90323,16.3255524 72.3782724,16.017733 71.9240537,15.6341509 C71.9240537,15.6341509 71.8756534,15.5806401 71.852251,15.5620968 C71.4937693,15.216661 71.1826242,14.9612927 70.9911503,14.5257893 C70.5598021,13.4873625 70.3215234,12.3583383 70.5848001,11.2674603 C70.5848001,11.0110325 70.5848001,10.7572537 70.6810689,10.483872 C70.7523397,10.0473089 70.9188157,9.59273226 70.9911503,9.13762583 C71.1826242,8.71907626 71.3969686,8.40913766 71.5177035,7.91853399 C71.5411059,7.57309814 71.8756534,7.15295914 71.9240537,6.86368311 C71.8756534,6.82606663 71.852251,6.82606663 71.8288486,6.82606663 C71.8288486,6.82606663 71.7554503,6.8795774 71.7081137,6.91666407 C71.6139723,7.3166703 70.9911503,7.2446162 70.7523397,7.51799794 L70.6332004,7.73416025 L70.0343126,8.06370181 L69.5322254,8.71907626 L66.9744531,9.75591361 L66.0165517,10.0287655 C66.0415497,10.1564497 65.9474083,10.2295634 65.9474083,10.3747312 C65.1086462,12.4876118 66.1383504,15.0518902 64.7517601,16.799732 L63.8417272,16.9104622 L62.812023,16.270982 C62.812023,16.270982 62.812023,16.2164116 62.7902163,16.1623711 C61.9785796,14.6333406 62.6221447,12.7594041 62.6221447,11.084676 C62.4551369,10.9575217 62.2168583,10.9013619 62.0482549,10.7572537 C61.3780962,10.4277122 61.1632199,9.79194066 60.9472799,9.13762583 C61.0924809,8.3725808 60.971746,7.38978402 61.786042,6.91666407 L62.7178817,6.67930938 L62.9561603,6.45996821 C62.9088237,5.78975909 63.2439031,4.98656777 62.8843576,4.4244398 C62.2168583,4.38629351 61.5945681,4.55106429 61.0685467,4.71477545 C60.9472799,4.80537289 60.8526067,4.91610309 60.6611328,5.05915168 C60.1606412,5.24193599 59.513353,5.11637112 59.0841324,4.93199738 C58.9155289,4.84139994 58.9155289,4.64166173 58.7245869,4.55106429 C58.6533161,4.58656154 58.6277862,4.60510487 58.6277862,4.60510487 C58.4129099,4.87689719 58.3655733,5.24193599 58.5341767,5.57041793 C58.5565154,6.15214885 58.5565154,6.59030137 58.5815133,7.15295914 C58.2230316,10.1564497 58.5815133,13.0317262 58.2937706,16.0717736 C58.2703682,16.2895254 58.1028286,16.5284695 58.0549601,16.7266183 C58.0310258,16.8193349 57.934757,16.9104622 57.8161496,16.9104622 C57.2183255,16.9104622 56.6194376,16.8193349 56.0710776,17 C55.8796037,16.9464892 55.7344027,16.8193349 55.6402613,16.7266183 C55.425385,16.3981363 55.1610447,16.1268738 55.0658396,15.7099137 C54.9467003,14.3981052 54.4696111,12.9596721 53.5367077,11.9032318 C53.5117097,11.7395207 53.3452337,11.6123664 53.248433,11.4481254 C53.1537598,11.2113005 53.0340886,11.0306355 52.9856883,10.8118241 C52.7713439,10.3212204 52.5075354,9.92015458 52.0767191,9.64624303 C51.6943031,9.84757067 51.6464347,10.3747312 51.6230323,10.8118241 C51.4549607,11.1572599 51.4549607,11.5222988 51.3129509,11.922305 C50.9768078,13.2134509 51.5262316,14.6709571 50.7619316,15.8900489 L50.4507865,16.1443575 L48.5392386,15.873095 C48.466904,15.873095 48.4190355,15.7803783 48.4190355,15.761835 C48.3945694,15.7438215 48.3227667,15.7438215 48.2993643,15.7099137 C47.6542036,14.0521395 48.2036274,12.066943 48.5392386,10.2481067 C48.7046508,9.92015458 48.5849796,9.59273226 48.7541149,9.24517717 C48.9929254,8.04515848 49.1828037,6.80646368 49.1828037,5.57041793 C49.0168596,5.26047932 49.256202,4.91610309 49.0881305,4.55106429 C49.0470035,4.40479945 49.0182366,4.25902078 48.9994201,4.11342824 Z M68.8641942,4.71477545 L68.8641942,4.38629351 C68.0988305,3.82257612 66.9031823,3.96774395 65.8506076,3.85913298 C65.7777412,4.60510487 65.8506076,5.4252501 66.2096212,6.13519494 L66.2324917,6.13519494 L66.8074453,6.04353788 L66.9744531,5.91585377 C67.7637511,5.64194222 68.4339098,5.31663914 68.8641942,4.71477545 Z M31.2568808,17 L30.3936636,16.7432491 L29.5086848,16.3171177 C29.4630887,16.3723271 29.4630887,16.3723271 29.3931401,16.3723271 C29.3226734,16.3530306 29.2988391,16.3530306 29.2294086,16.3171177 C29.1594601,16.2983571 29.136662,16.2431477 29.0905478,16.2254592 L28.3900258,15.9504838 C27.8553079,15.8931303 27.5066014,15.5071999 27.1330242,15.1947035 C26.5734357,14.7894766 26.3879424,14.1264268 26.2247291,13.463377 C25.8527064,12.0091699 25.9677329,10.5544268 26.3879424,9.0616267 C26.5734357,8.50953186 26.9003805,8.05016752 27.0853556,7.49753667 C27.4133366,6.90845684 26.9692927,6.55843944 26.6449387,6.13552408 C26.2698071,5.28754929 26.2698071,4.47709551 26.4102224,3.57551929 C26.6894985,3.24265434 26.9931271,2.7645295 27.5066014,2.65464655 C28.156864,2.83957151 28.4138602,2.30355711 28.8796658,2.10255171 C31.0931493,1.7707588 33.3061147,0.813437072 35.4957639,1.03213095 C36.5444742,1.60405832 36.4050952,2.78329 36.9631293,3.66717775 C37.0553578,4.0150511 36.9859274,4.34791604 36.6367027,4.58858651 C35.3330687,5.08439983 33.8175164,5.08439983 32.4677682,5.28754929 L30.4636122,5.9130781 L30.2542847,6.04279358 C29.9744904,6.37351447 29.9744904,6.85163932 29.9288943,7.25740222 C29.9744904,7.29438721 30.0454752,7.31368373 30.0910713,7.34906068 C31.5589549,7.77358409 33.0957508,6.63187341 34.4698516,7.03763631 C34.4936859,7.09123775 34.5408364,7.12822275 34.6574173,7.25740222 C34.7273659,7.42303067 34.8439469,7.49753667 34.8900611,7.68138961 C35.0532744,7.94082058 35.0056058,8.16005047 35.2164877,8.43609789 C35.2164877,8.78665131 35.4024991,9.0616267 35.4024991,9.41218012 C35.4724477,9.65231457 35.4957639,9.854392 35.5651943,10.0929184 C35.54136,10.1668884 35.4252972,10.1668884 35.3330687,10.2596189 C34.2144098,10.9039082 32.6770957,10.5731873 31.3962598,10.8299382 C31.3491092,10.8486987 31.3242386,10.8840757 31.2568808,10.9039082 C31.1625797,10.8840757 31.1625797,10.9607257 31.0931493,10.9210607 C30.5097265,11.1435066 29.6009132,10.9607257 29.1827763,11.3450481 C29.1594601,11.417946 29.0656772,11.4383146 29.0200811,11.4742275 C28.9035001,11.6216315 28.8796658,11.8424694 28.8796658,12.0815318 C29.136662,12.4685342 29.5086848,12.6154022 30.0910713,12.7445817 C30.9755321,13.0029406 31.8149149,12.7263572 32.3978196,12.2669928 C32.7931585,12.3018338 32.9553356,12.6341627 33.1429014,12.8919856 C33.7252879,13.7399604 33.8175164,14.8253896 33.4926442,15.8379208 C33.3294309,16.2431477 32.9553356,16.4082401 32.5133643,16.5765486 C32.3273529,16.5765486 32.2579225,16.6864316 32.1646577,16.7432491 L31.2568808,17 Z M21.0519195,6.79643255 C21.3680871,6.21423776 21.7555951,5.54366035 21.3907863,5.01387851 C21.2216231,4.73125968 20.9303165,4.41369889 20.4936269,4.39674176 C20.3477034,4.39674176 20.2487997,4.3433011 20.1763784,4.3433011 C19.9823541,5.42084962 19.8834504,6.62120887 19.640785,7.75168419 L19.665646,7.7861123 C20.4439048,7.6802587 20.7119717,7.18490497 21.0519195,6.79643255 Z M25.7409285,13.2057137 C26.1532975,13.8408353 26.0570961,14.7246615 25.5706844,15.2883576 C25.2804587,15.5889613 25.1831764,15.9060082 24.7675646,16.1711561 C24.5746213,16.3474074 24.1617118,16.3474074 23.7979839,16.3129793 C23.358592,16.1547128 22.8743421,15.9579073 22.6803178,15.6064322 C22.6543759,15.5535054 22.5333134,15.5355206 22.5333134,15.5185635 C22.0712223,14.91787 21.6593937,14.3875743 20.9551776,13.8583063 C20.370943,13.382479 19.7402292,12.9405659 19.0587123,12.5171515 C18.8884682,12.428255 18.9619704,12.1821197 18.7679462,12.1291929 C17.9167257,12.71036 18.1593911,13.7175108 18.2572139,14.5818105 C18.4998793,15.394725 18.4998793,16.4008481 17.7227014,16.9475871 L17.3335721,17 L17.2368302,17 L17.041725,16.9147005 L16.6779971,16.9475871 C16.629356,16.9301161 16.6044949,16.9147005 16.5801743,16.9147005 C16.2645472,16.717895 16.0948435,16.4008481 15.8278575,16.1166877 C14.7831532,14.6511806 15.8278575,12.9405659 15.7538149,11.3692052 C14.9042157,10.6801291 14.9042157,9.65602125 15.1220201,8.75780722 L15.3171252,8.70436657 L15.4138671,8.31589414 C15.4630487,8.26245349 15.4862884,8.26245349 15.5122304,8.24549636 L16.4110112,7.9448927 L17.1876485,5.45527774 C17.0665861,5.29546963 16.9449831,5.20811472 16.8001405,5.01387851 C16.4110112,4.41369889 16.2888678,3.70920722 16.4110112,3.00368785 C16.6779971,2.33156889 16.896342,1.6435205 17.7227014,1.30746102 C18.839827,0.847049256 20.1536791,0.989386375 21.3907863,1.18362259 C22.3392892,1.67794861 23.1397067,2.56126092 23.6277398,3.44405937 C24.622722,5.10226113 24.5989419,6.92078483 23.9671471,8.66788305 C23.7979839,8.95101573 23.7001611,9.23260686 23.3829125,9.49724085 C23.2137494,9.74491772 22.8743421,10.0979343 22.6543759,10.43348 C22.849481,11.1040574 23.7239412,11.651824 24.4784198,12.1456362 C24.9151095,12.445726 25.4501624,12.7822994 25.7409285,13.2057137 Z M106.71048,11.9478882 C106.28891,11.9109812 105.797598,11.7155296 105.542054,11.9645224 L105.422869,12.2327485 L106.780741,12.8388564 C107.341273,12.8768031 107.762323,12.3398311 108.279137,12.5191683 C108.370737,12.5545159 108.440999,12.5909032 108.51074,12.5909032 C109.051494,12.5358025 109.516783,12.0903184 110.19702,12.1433398 C110.218359,12.1433398 110.290182,12.1079922 110.290182,12.0710851 L108.300996,11.8402859 C107.783141,11.982716 107.247591,11.7680312 106.71048,11.9478882 Z M87.7091214,8.3408707 C88.1551529,7.53671215 87.9443679,6.62651072 87.9443679,5.74905783 C87.9443679,5.64353476 87.732542,5.67940221 87.641462,5.66120858 L86.3288699,8.39493177 C86.3288699,8.41052632 86.4480545,8.46562703 86.4917729,8.46562703 L87.5691185,8.39493177 C87.617521,8.39493177 87.641462,8.35802469 87.7091214,8.3408707 Z M117.800894,2.46432749 C118.151682,3.16348278 117.917476,3.94788824 117.987738,4.71461988 L117.987738,4.8217024 L117.777994,4.96361274 C117.63695,5.01871345 117.472486,5.01871345 117.403265,5.08888889 L117.238801,5.08888889 L116.537225,4.8217024 C116.397222,4.85705003 116.305101,4.84093567 116.163017,4.84093567 C115.976173,4.89499675 115.695126,4.96361274 115.533264,4.89499675 L114.5725,5.08888889 L110.851755,5.39298246 L109.612026,5.51929825 C109.540203,5.53645224 109.540203,5.5525666 109.471503,5.59051332 L108.676245,5.71423002 C108.605463,5.71423002 108.53364,5.67940221 108.51074,5.67940221 C108.440999,5.71423002 108.440999,5.74905783 108.370737,5.74905783 C107.671243,5.78752437 107.129968,6.1597141 106.920744,6.62651072 C106.805203,6.98362573 106.500736,7.39324237 106.71048,7.64223522 C108.115193,7.75087719 109.800432,7.94632878 110.897034,7.3022742 C111.014658,7.34126056 111.13124,7.34126056 111.272804,7.39324237 C111.928059,7.69837557 112.139365,8.26861598 112.442271,8.83989604 C112.793579,9.73294347 112.630676,10.8573099 111.928059,11.5190383 L110.851755,11.9109812 C110.781493,11.982716 110.781493,12.0903184 110.804393,12.1433398 C111.038599,12.3575049 111.388346,12.4661468 111.623592,12.7681611 C111.764115,13.5011046 111.764115,14.4648473 111.342025,15.1619233 L110.897034,15.5533463 C110.218359,15.894347 109.378862,16.0372969 108.51074,16.1079922 C108.090731,16.2145549 107.693102,16.1797271 107.366776,16.3387914 L106.289951,16.3387914 C104.440767,16.1797271 103.503945,15.0012995 102.522364,14.1259259 C102.497902,14.1259259 102.428681,14.1810266 102.428681,14.1810266 L101.843688,15.5533463 C101.750526,15.6432749 101.679224,15.7165692 101.679224,15.8049383 C101.656323,15.894347 101.539221,15.911501 101.51528,16.0372969 C101.351856,16.1615335 101.234233,16.3039636 101.095271,16.4469136 C100.58106,16.8934373 99.7842402,16.8934373 99.0587234,16.8752437 C98.9421411,16.8752437 98.9905436,16.8217024 98.9187205,16.8217024 C98.520571,16.8217024 98.1000419,16.7328135 97.677431,16.660039 C95.6663858,16.1079922 94.2372114,15.0350877 92.8351007,13.8592593 C92.8351007,13.8202729 92.8122006,13.7682911 92.8122006,13.7682911 L92.0851224,13.2328785 C91.6422136,12.785835 91.4777493,12.0903184 91.0582611,11.7155296 C91.0098586,11.7680312 90.986438,11.7867446 90.962497,11.8761533 C90.5404065,13.5011046 91.6422136,15.2695257 90.5404065,16.7510071 L90.2385416,16.9818064 L89.7467099,16.9818064 L89.7003892,17 L89.3017193,16.8934373 C89.2069962,16.8752437 89.1393368,16.8045484 88.9972521,16.7868746 C88.4585792,16.4822612 88.2014736,16.1079922 88.1317324,15.5533463 C87.6388597,14.6244314 88.388838,13.482911 87.9443679,12.5909032 C87.4759568,12.3398311 86.8201812,12.5358025 86.2825493,12.5191683 C85.4649116,12.8378168 84.3651863,12.7681611 83.8967752,13.4111761 C83.4065048,14.0723847 83.1473173,14.8214425 82.9375732,15.6068876 C82.6804676,16.1079922 82.3994209,16.6080572 81.7217861,16.8752437 C81.3678755,16.5721897 80.9478668,16.3387914 80.433135,16.2332684 C80.3868143,16.1615335 80.3639142,16.1079922 80.2920912,16.0014295 C80.1057677,15.5195582 79.8955031,14.9472385 80.0589265,14.340091 C80.2920912,14.0723847 80.2233909,13.6975958 80.433135,13.4111761 C81.3923369,12.1968811 81.8597072,10.6259909 82.1417948,9.3051332 C82.3994209,9.1065627 82.7267882,8.8762833 82.8204705,8.5539961 C83.4512641,7.39324237 83.9659959,6.18102664 84.5749304,4.98232619 C84.8793977,4.39233268 85.2994063,3.8231319 85.6298964,3.28615984 C85.9551819,2.91189084 86.2383104,2.53502274 86.6104371,2.16127355 C86.8920042,1.98401559 87.033048,1.7682911 87.2417512,1.62586095 C87.2891128,1.53645224 87.2891128,1.5005848 87.3822745,1.44652372 C87.8288265,1.19649123 88.2477942,1.51825861 88.6709256,1.59051332 C90.5643476,3.16348278 90.5404065,5.71423002 91.1509024,7.83976608 C91.1509024,7.87563353 91.1722411,7.87563353 91.2440642,7.87563353 C91.4553696,7.53671215 91.5953725,7.14269006 91.8035553,6.75126706 C91.9716628,6.197141 92.6477362,5.91176088 92.7429798,5.35711501 L93.3029914,5.08888889 C93.3508734,4.94801819 93.560097,4.94801819 93.6527384,4.78583496 C93.9806262,4.30396361 94.6842838,4.07212476 95.2697977,3.76855101 C96.4382233,3.1957115 97.8210771,2.67849253 99.4105522,2.51682911 C99.690558,2.46432749 100.066328,2.46432749 100.369754,2.4820013 C101.022927,2.71435997 101.49238,3.28615984 101.819226,3.73216374 C102.685267,5.2677063 102.592625,7.26796621 101.445018,8.64288499 C101.327395,8.67875244 101.257653,8.80454841 101.166053,8.83989604 L100.157928,8.80454841 C99.5255732,8.67875244 99.2466083,8.3408707 98.8260792,8.10747238 C98.7787176,8.07212476 98.7542562,8.03677713 98.7313561,7.96504224 C98.5913532,7.46445744 98.4268888,6.76790123 98.7313561,6.197141 C98.8260792,5.99909032 98.8494998,5.71423002 98.6850354,5.5525666 C98.5913532,5.51929825 98.5674122,5.48291098 98.4981914,5.46419753 C98.4045092,5.46419753 98.309786,5.46419753 98.2400448,5.51929825 L97.5629305,5.71423002 C97.3979457,5.67940221 97.3979457,5.84002599 97.2584632,5.80363873 L96.3445411,6.35672515 C95.8308502,6.76790123 95.4311393,7.2502924 95.0106102,7.785705 C94.8477072,8.10747238 94.5166967,8.32111761 94.4256167,8.67875244 C94.0753493,9.08992853 94.0992903,9.59051332 93.933785,10.0895387 C94.567181,10.9290448 95.6419243,11.5008447 96.4855849,12.0185835 C96.6724289,12.2691358 97.1418809,12.3398311 97.5629305,12.4822612 C98.4981914,12.7681611 99.690558,12.6434048 100.369754,12.1968811 C100.438975,12.1433398 100.486336,12.1079922 100.532657,12.0185835 C100.861586,11.751397 101.166053,11.4462638 101.656323,11.4462638 L102.031052,12.0903184 C102.100273,12.1433398 102.124214,12.1433398 102.170535,12.1433398 C102.569725,11.3412606 102.241837,10.5001949 102.592625,9.6617284 C102.615525,9.37478882 102.777908,9.03482781 102.872631,8.67875244 C103.154198,7.90994152 103.457624,7.21442495 103.787594,6.4820013 C104.252362,5.64353476 103.69183,4.6605588 104.371026,3.76855101 C104.792076,3.07251462 105.938642,2.98258609 106.873383,2.78661468 C106.943124,2.78661468 106.967585,2.80324886 107.085209,2.83911631 C110.19702,2.10877193 113.239611,1.78752437 116.327481,1 C117.193521,1.21416504 117.450627,1.85821962 117.800894,2.46432749 Z M128.908531,11.8811981 C129.115128,11.9254896 129.325931,12.088419 129.428967,12.5339705 C129.532528,12.9800492 129.569327,13.6259669 129.440532,13.7140227 C129.311212,13.8036602 129.056777,13.8584973 129.056777,13.8584973 L128.616772,13.9307347 C128.616772,13.9307347 128.099491,13.848479 127.971748,13.737223 C127.843479,13.6254397 127.843479,13.2236525 127.843479,13.2236525 C127.843479,13.2236525 127.945463,12.4659514 127.945463,12.2877308 C127.945463,12.108983 127.791435,11.9755812 127.791435,11.9755812 L127.791435,11.8859436 C127.791435,11.8859436 128.100017,11.7525418 128.357606,11.7968333 C128.615721,11.8416521 128.70246,11.8363793 128.908531,11.8811981 Z M126.930351,12.6526084 C127.04285,12.781792 127.461826,13.8764249 127.51755,14.3061579 C127.57485,14.7358909 127.182158,14.6821084 127.182158,14.6821084 L126.846766,14.692654 C126.846766,14.692654 126.455651,14.9077841 126.12026,14.8213103 C125.785394,14.7358909 125.673947,14.3915772 125.673947,14.3915772 C125.673947,14.3915772 125.561449,13.6612947 125.561449,13.4039822 C125.561449,13.1466696 125.899469,12.853502 125.899469,12.853502 L126.065062,12.5023337 C126.065062,12.5023337 126.818905,12.5239522 126.930351,12.6526084 Z M125.123547,14.6573262 C125.031551,14.9684213 125.099365,15.2568434 125.138792,15.4166092 C125.199773,15.670758 125.216069,15.9264887 125.031551,15.9328161 C124.82916,15.9391434 124.451187,15.9523263 124.451187,15.9523263 C124.451187,15.9523263 123.802483,15.95338 123.520712,15.8806154 C122.982403,15.7414135 123.000276,15.1434782 123.000276,15.1434782 C123.000276,15.1434782 123.039703,14.3773407 123.184794,13.980299 C123.344079,13.5474023 123.771992,12.9489397 123.771992,12.9489397 C123.771992,12.9489397 123.999617,12.7875921 124.176775,12.8846115 C124.353934,12.981631 124.334483,13.1635426 124.334483,13.1635426 L124.452238,13.7171864 L124.661989,14.4068683 C124.661989,14.4068683 124.685646,14.5545067 124.782899,14.5502884 C124.8791,14.5455429 124.949543,14.4617054 124.949543,14.4617054 L125.012626,14.3425402 C125.012626,14.3425402 125.177168,14.4738329 125.123547,14.6573262 Z M135.367712,4.7360295 C135.52174,4.54568149 135.631084,4.41069787 135.706258,4.29311447 C135.695218,4.19556771 135.818756,4.02683817 135.706258,4.03052913 C135.706258,4.03052913 135.100135,4.11542118 134.72479,4.26042312 C134.483498,4.35322437 134.35996,4.29522359 134.261656,4.22984089 C133.938881,4.61211875 133.659738,4.95432334 133.580358,5.10248896 C133.637659,5.15047143 133.88526,5.12463472 134.408324,5.05872474 C134.658028,5.02761523 134.974494,5.00968772 135.367712,4.7360295 Z M136.764476,11.862216 C136.382298,11.9465808 136.022199,11.3159541 135.957013,11.7087776 C135.888673,12.0109089 135.8708,12.5054974 135.831373,13.1804155 L135.636341,15.369154 C135.636341,15.369154 135.468645,15.8489786 135.320925,16.147419 C135.169526,16.4432229 134.608087,16.7305904 134.180699,16.9515207 C133.823754,17.1344867 133.386378,16.7406087 133.386378,16.7406087 C132.897484,16.2560386 132.642523,15.8437058 132.642523,15.8437058 C132.642523,15.8437058 132.800231,15.8326329 133.078322,15.7345589 C133.078322,15.7345589 133.558279,15.559502 133.776442,15.2093882 C133.797469,15.197788 133.925213,14.7960008 134.001964,14.4595963 C134.170185,13.0992144 134.382039,11.5453209 134.41726,10.8166202 C134.380462,10.2044483 134.680107,8.88466698 134.430403,9.10717905 C133.398995,9.26219931 132.328685,9.59174919 132.328685,9.59174919 L131.123799,9.87384388 C131.20055,9.88228036 131.273621,9.90337155 131.324087,9.92920826 L131.307791,9.9228809 C133.660264,10.8830574 133.51307,10.8830574 133.526212,11.0138228 C133.543034,11.2284257 133.494145,11.3913552 133.344323,11.6143945 C133.241813,11.7651965 132.872777,12.069437 132.384409,12.0715461 C132.239317,12.0731279 131.707843,11.901762 131.405044,11.6855773 L131.089629,11.5295025 C130.875672,11.4382831 130.651727,11.3491728 130.583387,11.1187515 C130.512944,10.8751482 130.494545,10.7602012 130.562885,10.5329436 L130.600209,10.4011237 L130.781573,9.99564552 C130.805755,9.96664513 130.835719,9.95293585 130.864107,9.93448106 L129.835327,10.1754479 C129.63241,9.93448106 128.723488,9.33549121 129.055725,8.81770244 C129.07097,8.79872037 129.259168,8.40536964 129.506243,8.27776793 C130.54028,8.17811204 131.142198,7.94610893 132.416476,7.72412413 C132.416476,7.72412413 132.735571,7.6624324 133.146137,7.58334043 C133.458924,7.20475353 133.808509,6.78240241 133.864758,6.67800101 C133.924687,6.58994528 133.994604,6.49661676 134.067149,6.40223367 C133.828485,6.47130733 133.623991,6.52456259 133.623991,6.52456259 C133.318564,6.56779953 132.730314,6.74338371 131.594819,7.00544177 C131.306214,6.99964169 131.070178,6.88258557 130.95032,6.44705246 C130.816794,5.95984592 130.787881,5.70569706 131.116965,5.37456534 C131.415558,5.07612497 132.337096,3.73683428 132.337096,3.73683428 C133.132994,2.49561763 133.250749,2.20825014 133.456821,1.69678873 C133.634505,1.26125561 133.853718,0.515154697 133.853193,0.509354619 L133.846359,0.435008167 L133.892094,0.378061948 C133.922584,0.344316041 134.116039,-0.110726427 134.752126,0.0253117616 C134.961352,0.0696032649 135.643701,1.14261766 135.643701,1.14261766 C135.650535,1.15685421 135.740954,1.42471235 135.739376,1.44053075 C135.71204,1.77377158 135.637392,2.18083159 135.488096,2.56310944 C135.51806,2.55994576 135.544345,2.55730937 135.575886,2.55414569 C135.862914,2.52356346 136.295033,2.35747032 136.720318,2.22617765 C136.90799,2.16870415 137.198698,2.35694304 137.407924,2.66012893 C137.487303,2.77454864 137.484675,2.87842276 137.601378,3.0445159 C137.718608,3.21060904 137.851082,3.35086547 138.01247,3.53857708 C138.259545,3.82383545 138.44196,4.06902055 138.291612,4.29311447 C137.887881,4.8899952 137.233394,5.32131008 136.687725,5.86862652 C135.907072,6.7122742 135.972784,6.74338371 135.686807,7.03918767 L137.120896,6.67852829 C137.557746,6.65585526 138.724257,6.29835955 138.928751,6.64583694 C139.000771,6.77238409 139.632128,7.46628431 139.632128,7.79636147 C139.632128,8.33682326 138.990257,8.41749707 138.990257,8.41749707 C138.533956,8.52084391 138.154407,8.54878974 137.719134,8.615227 C137.582454,8.63737275 136.530018,8.78553837 136.213025,8.88835794 C136.171496,9.09083338 136.155199,9.56433064 136.155199,9.56433064 L136.058472,10.6331268 C136.108412,10.5962172 136.159405,10.5561439 136.209871,10.5239799 C136.409108,10.3969054 136.904836,9.86593469 137.422643,9.26325387 C137.445774,9.22001693 137.656576,8.86990314 137.656576,8.86990314 L137.715979,8.84775739 C137.740161,8.83773907 138.113928,8.73122855 138.560767,8.96850447 L138.953459,9.18732558 C139.274131,9.35183688 139.538029,9.57856719 139.592701,9.88544404 C139.642641,10.1490839 139.120629,10.509216 138.845692,10.8008018 L137.955169,11.2769354 C137.491509,11.5679939 137.330647,11.7657238 137.226034,11.7894514 L136.764476,11.862216 Z M133.797469,13.198343 C133.618208,13.4593465 133.265994,13.7076953 132.935334,14.0831185 L132.341827,14.7622549 C131.703111,15.2441887 131.709945,15.3744268 131.479692,15.4076454 C131.183727,15.4545733 130.546063,15.2605343 130.320015,15.1097323 C130.127086,14.9821306 129.665528,14.2935032 129.713892,14.002972 C129.741228,13.8062966 130.392035,13.6924042 130.392035,13.6924042 C131.087,13.4382553 131.48968,13.2426345 131.974894,12.9784674 C132.843864,12.508661 133.256532,12.2423847 133.548817,12.0320001 L133.865284,12.0963282 L133.830588,12.4111143 C133.80588,12.5039155 133.97673,12.9410305 133.797469,13.198343 Z M139.991175,14.6836902 C140.057413,14.8808929 139.743574,15.3870815 139.563262,15.625412 L139.147439,15.8858882 C138.760004,16.0762362 138.540265,15.9169977 138.540265,15.9169977 C138.540265,15.9169977 138.133905,15.355972 137.899446,15.0327495 C137.479418,14.4601236 136.670377,13.2705804 136.499527,13.1788337 C135.945448,12.7243185 136.184638,12.6689541 136.191998,12.5777347 C136.198306,12.4179689 136.615705,12.5513707 136.783927,12.49917 C136.879603,12.472806 137.214995,12.2819307 137.441042,12.4090052 L137.833209,12.4965336 C137.996173,12.5840621 138.114454,12.6636813 139.045455,13.396073 L139.516475,13.8363516 C139.913899,14.229175 139.806657,14.1289919 139.991175,14.6836902 Z M124.323969,11.6655406 C124.12736,11.4440831 124.033261,11.3027721 123.893953,11.038605 C123.768838,10.7971108 123.729937,10.4406697 123.904993,10.2313396 C124.348151,9.70300523 124.858598,9.16359799 125.474184,8.36265997 C125.817987,7.91658126 126.182291,7.41355633 126.349462,7.022842 C126.084513,6.89945853 124.73874,6.87467638 124.73874,6.87467638 C124.436993,6.84989422 124.13472,6.82616663 124.039044,6.38536072 C123.93338,5.89288139 123.921815,5.63873252 124.291902,5.33185568 C124.626242,5.05608834 125.546204,4.03000185 125.546204,4.03000185 C126.470371,2.85153149 126.614936,2.57365504 126.86832,2.08012115 C127.085956,1.65987914 127.369304,0.933287579 127.369304,0.927487501 L127.366676,0.854195609 L127.419771,0.799885789 C127.452364,0.768776281 127.755688,0.492481665 128.404393,0.708139104 C128.976346,0.894796153 129.20765,1.67727938 129.20765,1.67727938 C129.212907,1.69151593 129.288607,1.96359231 129.285978,1.9794107 C129.203445,2.49667219 128.711397,3.36879298 128.244582,3.83754472 C127.652653,4.42862538 126.594434,5.34029215 126.41307,5.61395037 C126.470371,5.66562379 127.024976,5.75578864 127.338814,5.77740711 C128.296626,5.84278981 128.518468,6.24457701 128.539495,6.72861987 C128.548958,7.00227809 128.534764,6.99278705 128.098965,7.63395929 L127.106984,8.79766581 L126.116054,9.97877256 C126.698521,9.80213383 126.747936,9.76838792 127.085431,9.65185909 C127.129589,9.63656797 127.162182,9.63234973 127.202134,9.62074958 C127.223688,9.29594522 127.266269,8.94477687 127.266269,8.94477687 C127.266269,8.94477687 127.359316,8.8266662 127.553297,8.84828467 C127.746226,8.86884858 127.756214,8.90206721 127.967542,8.933704 C128.178345,8.96534079 128.398084,8.97430454 128.561575,9.21738053 C128.751875,9.49736611 128.74031,9.96875425 128.74031,9.96875425 C128.74031,9.96875425 128.867002,10.4085056 128.782891,10.5761806 C128.700357,10.7449101 128.511634,10.9932589 128.511634,10.9932589 C128.511634,10.9932589 128.31923,11.2220983 127.963337,11.2764082 C127.591672,11.3317725 127.327775,11.4920656 127.134846,11.2416077 C127.096996,11.1925707 127.082802,11.1240243 127.079122,11.0486233 L126.346833,11.3613002 C125.552512,11.790506 125.002638,12.4095324 124.323969,11.6655406 Z M167.25607,10.3463417 C167.549876,9.88149691 167.943172,9.50015714 167.775283,9.04366283 C167.763365,9.0046938 167.401678,8.47471503 167.32136,8.42015839 C166.813029,8.07389075 166.255472,8.33331313 165.986538,8.47972534 C165.790667,8.58661181 164.984903,8.8660754 164.513881,9.02529171 C164.635652,9.82861037 164.776596,10.8212072 164.856913,11.6317629 C165.234146,11.5783197 165.649205,11.5198661 165.677705,11.5115156 C166.25029,11.3578663 167.023409,10.713764 167.25607,10.3463417 Z M168.333877,6.4121401 C169.240686,7.05234555 170.107077,8.25203488 169.989451,9.151106 C169.869752,10.0384864 169.054661,12.4105868 167.826582,13.151555 L167.110463,13.6136163 C166.586068,13.9203582 166.065819,14.0417189 165.86943,13.9721313 C165.34089,13.7828532 164.951222,13.4605237 164.753796,13.2773693 L164.705606,13.3642145 C164.485899,13.7455543 163.830406,13.8886263 163.584272,13.9637808 C163.041741,14.130791 162.789908,13.6676162 162.77799,13.6397812 L162.750008,13.3736784 L162.747935,13.3313692 C162.737572,13.2584414 162.541701,11.4970414 162.51942,10.912506 C162.49662,10.3463417 162.02767,6.67712949 162.02767,6.64038726 L162.000207,6.17442904 L162.958833,6.02968694 L163.253676,6.1193157 L163.857869,6.62535635 C163.969277,6.696614 164.042858,6.77455205 164.097785,6.85694371 L166.670531,6.1148621 C166.789193,6.05195495 167.426032,5.77249136 168.333877,6.4121401 Z M171.258697,5.30506767 C171.330068,5.27352683 171.97332,5.00310287 172.317821,5 C172.717223,4.99948343 173.037019,5.4053779 173.074535,5.45191357 L173.100155,5.48707386 C173.100155,5.48707386 173.974904,8.03412628 173.990002,8.10548098 C174.124051,8.28490185 172.897938,8.99741468 172.630297,9 C172.353964,9 171.73313,8.187694 171.611434,7.84694947 L171.035435,6.11272011 L171.000207,5.71096214 L171.258697,5.30506767 Z M181.459542,3.00164797 C181.481297,2.99476145 182.057245,2.99705696 182.74414,3.26907417 C184.318071,3.88943409 183.966738,4.68884332 183.966738,4.68884332 C183.989036,5.15368286 183.481614,5.6472162 182.608175,6.28020139 C182.341684,6.47015434 181.094068,7.92263443 180.564349,7.99322117 C180.078682,8.05749528 179.379821,7.6437307 179.356979,7.63627032 L179.000207,7.04288256 L179.272681,6.21535341 L179.330874,6.15968744 C179.833401,5.67189286 180.339191,5.06874922 180.479506,4.77664635 L181.506314,3.23808487 L181.459542,3.00164797 Z M184.80479,9.22904118 C184.908475,9.43010552 185.053423,10.1137243 184.98042,10.5062019 C184.905301,10.9201263 183.855223,10.7458705 183.788568,10.7560578 L180.724561,10.8380921 L178.283195,11.1217268 L178.285311,12.6605392 C178.22183,14.253505 177.971081,16.2770165 177.93458,16.4759361 C177.894904,16.6625238 177.913948,17.5397005 177.399225,17.9370036 C177.330454,17.9906208 176.89032,18.0522805 176.52848,17.9246717 L175.768826,17.628705 L175.523896,17.300568 C175.441371,17.1198782 175.337686,16.8185497 175.380006,16.5445661 C175.390057,16.4534169 175.594783,14.8577703 175.620175,13.5950863 C175.637632,12.7398926 175.684185,12.0326823 175.734441,11.434851 C174.814498,11.6155408 172.435026,12.2069381 171.87375,12.362964 L170.996656,12.2921894 C170.752784,12.3072022 170.2862,11.909899 170.17987,11.4729192 L170.128027,11.2820421 C170.018523,10.8842028 169.907961,10.4713507 170.123266,10.244014 C170.311064,10.0408049 170.86705,9.91426844 170.86705,9.91426844 L171.695474,9.80864264 C171.72986,9.8038171 174.820317,9.43117786 175.946043,9.26603702 C175.94763,9.22421563 175.950804,9.17756871 175.94763,9.14486224 C175.93176,8.79635072 175.940224,8.75292082 175.94234,8.06233184 C175.94763,7.81837378 175.99048,7.11920605 176.024865,6.86774159 C176.12908,6.16106746 176.037033,5.79593462 176.047613,5.3230313 C176.061367,4.59598265 175.998415,3.8973511 176.000002,3.88394681 L175.968791,3.412652 C175.586319,3.4598351 175.28743,3.48396282 175.133489,3.46841384 C174.264331,3.39013279 172.957155,3.61746954 172.607482,3.23142601 C172.304361,2.9091869 171.827726,1.85239273 171.779057,1.75159248 L171.658973,1.49798333 L171.967384,1.48136201 C171.989602,1.48028966 174.301361,1.31514882 175.68683,1.09692699 C176.591432,0.955377698 178.559337,0.549495821 179.035443,0.439044477 C180.639391,0.0717669526 180.782223,-0.140556989 181.22606,0.106618105 C181.565682,0.298567526 182.311052,1.32265522 182.357076,1.57787289 C182.489857,2.27328741 181.96614,2.28079382 181.948683,2.29741514 L181.904775,2.33333863 L181.847114,2.34459823 C181.504846,2.41483671 179.623698,2.80302492 177.920826,3.10488952 C178.113913,3.57403964 178.206489,4.09948778 178.219185,4.15417728 L178.208605,4.90749833 L178.266267,5.21418847 L178.217598,6.40717021 L178.259919,7.20713819 L178.255158,7.99959977 L178.282137,8.61780559 L178.282137,8.91591698 C179.653323,8.73093779 181.248807,8.52719259 181.451945,8.51432448 L182.59989,8.31754951 L183.33468,7.99477423 C183.711333,8.02640835 184.322336,8.52987345 184.442421,8.78991666 L184.80479,9.22904118 Z M148.757563,8.83426202 C148.784412,9.24878617 148.902546,9.49976358 148.774747,9.83045716 C148.629227,10.2058947 148.55942,10.4563578 148.522906,10.6307048 C148.770451,10.5453313 149.012626,10.4656151 149.241376,10.3987564 C149.622627,10.2850966 149.942663,10.2794393 150.197188,10.3077257 C150.382981,10.0896633 150.540851,9.80885665 150.62086,9.43290484 C150.798598,8.9391788 150.936063,8.31584968 150.652541,8.33127862 C150.443659,8.35236483 150.058649,8.44545276 149.675787,8.57094146 L148.757563,8.83426202 Z M146.966222,10.0099472 C147.059655,9.73942642 147.093484,9.50799234 147.100465,9.30998763 L145.540558,9.75948404 L145.525523,9.80988524 C145.348322,10.4121282 145.161455,11.2056899 145.023453,11.8943349 C145.039026,11.8866204 145.431553,11.6999302 146.390587,11.38878 C146.457708,11.3666652 146.536643,11.3378645 146.608598,11.3136925 C146.703642,10.9259118 146.861512,10.30824 146.966222,10.0099472 Z M11.4413793,20 L11.3953448,20 L10.4648276,19.5434865 C10.4415517,19.4890541 10.395,19.4192162 10.3018966,19.4192162 C9.65017241,19.0998108 9.97603448,18.3418649 10.0458621,17.7795676 C9.88293103,17.1448649 10.0458621,16.4726757 9.95327586,15.8559459 L7.62775862,16.4182432 C7.30189655,16.5769189 6.90775862,16.5769189 6.5337931,16.5769189 C5.46568966,16.4018108 4.32568966,16.6678108 3.39465517,16.2077027 C3.09206897,16.2251622 2.90637931,16.0844595 2.65137931,15.9781622 C1.92982759,15.8205135 1.48862069,15.4127838 0.977068966,14.9716757 C0.906724138,14.833027 0.743793103,14.7606216 0.721034483,14.6045135 L0.511551724,14.3903784 L0.162931034,13.3145676 L5.68434189e-14,12.3265676 C0.0227586207,12.2911351 0.139655172,12.3265676 0.162931034,12.3091081 C0.162931034,11.0391892 -0.0698275862,9.73383784 0.511551724,8.53427027 L1.815,6.78832432 L2.18482759,6.47097297 C2.18482759,5.90456757 2.745,5.53535135 3.16293103,5.19951351 C3.25603448,5.14610811 3.39465517,5.21748649 3.465,5.21748649 C3.55810345,5.09321622 3.62741379,4.91913514 3.6512069,4.72297297 C3.83793103,4.40613514 4.16224138,4.19610811 4.57965517,4.07081081 C5.72224138,3.04789189 6.74327586,1.56537838 8.81327586,1.1787027 C10.3018966,1.05494595 11.0456897,1.98902703 11.7667241,2.74748649 C11.7667241,3.6487027 12.6036207,4.56686486 12.0693103,5.48194595 C11.9301724,5.76386486 11.6043103,5.92356757 11.1398276,5.97543243 L10.4881034,5.90456757 L10.1156897,5.46448649 L9.90568966,4.88216216 C9.7437931,4.82927027 9.72103448,4.70602703 9.72103448,4.56686486 C9.55758621,4.3707027 9.4412069,4.08775676 9.11586207,4.07081081 C8.72068966,4.21202703 8.3012069,4.38764865 7.90655172,4.56686486 C6.88396552,5.21748649 5.72224138,6.03037838 5.04568966,6.89308108 C4.39603448,7.49286486 3.93051724,8.11062162 3.41844828,8.85213514 C3.34862069,9.11505405 3.04706897,9.25781081 3.00051724,9.5387027 C2.76672414,9.71586486 2.76672414,9.99983784 2.55724138,10.2283514 C2.0937931,10.9154324 1.92982759,11.7442432 2.16310345,12.5571351 C2.34931034,12.9448378 2.76672414,13.1913243 3.39465517,13.2442162 C3.9987931,13.5091892 4.67431034,13.4383243 5.04568966,13.8101081 C5.46568966,13.8784054 5.95293103,13.844 6.39517241,13.9672432 C7.04637931,14.1269459 7.72086207,14.0196216 8.11603448,13.6858378 L8.44189655,13.7022703 C8.46413793,13.7556757 8.48741379,13.8101081 8.5562069,13.8101081 L10.2082759,12.8210811 C10.395,12.609 10.6044828,12.1858649 10.4881034,11.8854595 C10.4648276,11.8695405 10.395,11.8510541 10.3246552,11.8510541 L9.55758621,11.9563243 C9.48931034,11.9917568 9.48931034,12.0615946 9.39568966,12.0615946 C8.58103448,12.1858649 7.72086207,12.2911351 6.88396552,12.4498108 C6.69775862,12.5027027 6.41896552,12.5027027 6.23224138,12.609 C5.88465517,12.6803784 5.41862069,12.7676757 5.13931034,12.5571351 C5.09327586,12.4338919 4.95258621,12.3974324 4.95258621,12.3091081 C4.88327586,12.1334865 4.74517241,12.0087027 4.74517241,11.8156216 C4.57965517,11.6759459 4.57965517,11.4274054 4.41827586,11.2867027 C4.55896552,10.6335135 4.51137931,9.87454054 4.97637931,9.38002703 C5.13931034,9.30967568 5.23189655,9.25781081 5.41862069,9.22237838 C6.65068966,9.04624324 7.74413793,8.74635135 8.90689655,8.65597297 C8.97568966,8.62259459 8.97568966,8.56918919 9.045,8.56918919 C10.4881034,8.44645946 11.9534483,7.91754054 13.4405172,8.21589189 C13.7912069,8.30472973 13.8832759,8.56918919 13.9298276,8.85213514 L14.2091379,9.13302703 C14.2784483,9.96183784 14.9301724,10.8630541 14.3948276,11.6759459 C14.115,12.0615946 13.9763793,12.626973 13.7663793,13.120973 C13.6277586,14.2676486 13.1162069,15.4672162 13.1389655,16.6678108 C13.0918966,17.6717297 13.3939655,18.8204595 12.6268966,19.6841892 L11.4413793,20 Z"/>
</svg>
