<?xml version="1.0" encoding="utf-8"?>
<!-- Generator: Adobe Illustrator 22.0.1, SVG Export Plug-In . SVG Version: 6.00 Build 0)  -->
<svg version="1.1" id="Livello_1" xmlns="http://www.w3.org/2000/svg" xmlns:xlink="http://www.w3.org/1999/xlink" x="0px" y="0px"
	 viewBox="0 0 185 20" style="enable-background:new 0 0 185 20;" xml:space="preserve">
<style type="text/css">
	.st0{fill:#FDFEFD;}
</style>
<g>
	<path class="st0" d="M117.7,1.5c-0.2-0.1-0.4-0.3-0.6-0.2c-1.7,0.3-3.5,0.6-5.2,1c-1.7,0.3-3.5,0.4-5.3,0.8c-1,0.2-2,1.3-1.9,2.4
		c0,0.4,0,0.8-0.2,1.2c0,0.1-0.1,0.1-0.1,0.2c-0.7,1.5-1.2,3-1.3,4.6c0,0.3,0,0.5,0,0.8c-0.1,0-0.1-0.1-0.2-0.1
		c-0.6-0.7-0.8-0.8-1.5-0.2c-0.8,0.6-1.7,0.8-2.6,0.6c-1.1-0.2-2.1-0.7-3-1.2c-0.4-0.2-0.7-0.5-1-0.8c-0.2-0.3-0.3-0.5-0.2-0.9
		c0-0.2,0.1-0.4,0.1-0.5c0.4-1.2,1.2-2,2.2-2.7C97.5,6,98.2,5.7,99,5.6c0.5,0,0.6,0.1,0.5,0.6c-0.1,0.3-0.1,0.5-0.2,0.8
		c-0.1,0.4,0,0.8,0.3,1.1c0.4,0.4,0.9,0.7,1.5,0.8c0.3,0.1,0.6,0,0.9-0.1c0.5-0.3,0.8-0.7,1-1.3c0.5-1.4,0.1-3.3-1-4.3
		c-0.4-0.4-0.9-0.6-1.4-0.6c-0.2,0-0.5,0-0.7,0c-2.2,0.3-4.1,1.1-6,2.3c-0.1,0.1-0.2,0.1-0.2,0.2c-0.1,0.2-0.2,0.4-0.4,0.5
		c-0.4,0.2-0.7,0.6-0.9,1c-0.2,0.4-0.4,0.8-0.6,1.2c0,0.1-0.1,0.2-0.2,0.3c-0.1-0.1-0.1-0.1-0.1-0.2c0-1.3-0.4-2.4-0.6-3.7
		c-0.2-0.9-0.6-1.6-1.2-2.4c-0.3-0.4-0.6-0.6-1-0.7c-0.3-0.1-0.6-0.1-0.8,0.1c-0.6,0.5-1.1,1-1.5,1.6c-1.1,1.6-2,3.3-3,5
		c-0.3,0.5-0.6,0.9-1,1.1c-0.1,0-0.1,0.1-0.1,0.2c0.1,0.8-0.2,1.4-0.5,2.1c-0.3,0.7-0.7,1.3-1.1,2c-0.1,0.2-0.2,0.3-0.1,0.5
		c0.1,0.3,0,0.5,0,0.8c0,0.1,0,0.2,0,0.3c0.4,0.6,0.8,1,1.5,1.3c0.4,0.1,0.5,0.1,0.8-0.3c0.3-0.4,0.5-0.9,0.7-1.4
		c0.2-0.6,0.5-1.2,0.8-1.7c0.1-0.1,0.1-0.3,0.3-0.3c0.8-0.3,1.6-0.5,2.5-0.4c0.2,0,0.4,0,0.6,0c0.4-0.1,0.6,0,0.6,0.5
		c0,0.8,0,1.7,0.1,2.5c0,0.6,0.3,1,0.8,1.2c0.3,0.1,0.6,0.2,0.9,0.3c0.4,0.1,0.7-0.1,0.9-0.4c0.1-0.2,0.2-0.3,0.3-0.5
		c0.1-0.4,0.1-0.8,0.1-1.1c0-1.1-0.1-2.1,0-3.2c0-0.1,0-0.2,0.1-0.2c0.1,0,0.1,0.1,0.1,0.2c0.1,0.3,0.3,0.6,0.5,0.9
		c1.8,2.1,3.9,3.6,6.7,4.1c0.7,0.1,1.4,0.2,2.2,0c1-0.3,1.6-1.1,2-2c0.1-0.2,0.2-0.4,0.2-0.7c0.1,0,0.1,0.1,0.2,0.2
		c0.6,0.9,1.4,1.6,2.5,2c0.8,0.3,1.6,0.3,2.4,0.2c1-0.1,2-0.3,2.9-0.5c0.4-0.1,0.7-0.3,0.9-0.7c0.3-0.6,0.4-1.3,0.4-2
		c0-0.6-0.3-0.8-0.9-0.8c-0.4,0-0.8,0.1-1.1,0.2c-0.8,0.1-1.6,0.4-2.4,0.3c-0.6,0-1.2-0.1-1.6-0.5c-0.2-0.2-0.3-0.4-0.2-0.6
		c0.1-0.3,0.3-0.3,0.5-0.3c0.5,0.1,1,0,1.4,0c0.4-0.1,0.9-0.1,1.3-0.1c1,0.1,1.9-0.1,2.8-0.2c0.5-0.1,0.9-0.3,1-0.8
		c0.2-0.7,0.1-1.5-0.4-2.1c-0.5-0.6-0.7-0.9-1.7-0.7c-1.1,0.3-2.3,0.4-3.5,0.4c-0.3,0-0.5-0.2-0.4-0.5c0-0.5,0.7-1.3,1.3-1.4
		c0.4-0.1,0.8-0.1,1.1-0.2c1.4-0.2,2.8-0.3,4.2-0.5c1-0.1,2.1-0.2,3.2-0.2c0.4,0,0.9,0.1,1.3,0.1c0.3,0,0.4-0.1,0.5-0.5
		c0.1-0.5,0.1-0.9-0.1-1.3C118.7,2.6,118.3,2,117.7,1.5z M88.5,8c0,0.2-0.1,0.4-0.3,0.4c-0.6,0.2-1.2,0.2-1.8,0.2
		c-0.1,0-0.2-0.1-0.1-0.2c0.5-1.1,0.9-2.1,1.5-3.2c0-0.1,0.1-0.2,0.2-0.2c0.2,0,0.3,0.1,0.4,0.3c0.1,0.4,0.1,0.8,0.1,1.1
		c0,0.2,0,0.3,0,0.5c0,0,0,0,0,0C88.6,7.4,88.5,7.7,88.5,8z"/>
	<path class="st0" d="M72.1,5.2c-0.1-0.7-0.4-1.4-0.7-2.1c-0.5-1.1-1.5-1.5-2.5-1.7c-1.1-0.2-2.3-0.2-3.4-0.1c-0.3,0-0.6,0.1-0.9,0
		c-0.3-0.1-0.6-0.1-0.9,0.1c-0.4,0.2-0.8,0.4-1.3,0.2c0,0-0.1,0-0.2,0c-0.8,0.1-1.6,0.3-2.4,0.7C59.4,2.4,59.2,2.7,59,3
		c0,0.1-0.1,0.2-0.2,0.2c0-0.1,0-0.1,0-0.2c-0.1-0.8-0.7-1.4-1.5-1.6c-0.4-0.1-0.9,0.2-0.9,0.7c-0.1,1.2-0.2,2.4-0.2,3.6
		c-0.1,1,0,2.1-0.2,3.1c0,0.1,0,0.2-0.2,0.2c-0.1,0-0.2,0-0.3-0.1C55,8.3,54.5,7.7,54,7.1c-0.9-1-1.3-2.2-1.2-3.5
		c0-0.5,0-0.9-0.2-1.3c-0.1-0.3-0.3-0.5-0.6-0.6c-0.4-0.1-0.7-0.2-1.1-0.3c-0.4-0.1-0.7,0-1,0.3c-0.1,0.1-0.1,0.1-0.1,0.2
		c0,0.2-0.1,0.3-0.2,0.5c-0.1,0.2-0.2,0.4-0.2,0.6c-0.1,0.8-0.2,1.6,0.1,2.5c0.1,0.3,0.1,0.7-0.1,1c-0.1,0.1,0,0.2,0,0.3
		c0,0.4,0.1,0.8,0,1.2c-0.2,1.3-0.5,2.5-0.7,3.7c-0.2,0.9-0.4,1.7-0.3,2.6c0.1,1.2,1,2.1,2.2,2c0.1,0,0.3,0,0.4-0.1
		c0.2-0.3,0.4-0.6,0.5-1c0.1-0.7,0.1-1.3,0.2-2c0.1-0.9,0.2-1.8,0.4-2.7c0.1-0.2,0.1-0.4,0.3-0.4c0.2,0,0.3,0.2,0.4,0.3
		c0.5,0.7,1,1.4,1.5,2.1c0.2,0.3,0.3,0.5,0.5,0.8c0.3,0.6,0.6,1.2,0.6,1.9c0,0.6,0.3,1,0.7,1.4c0.1,0.1,0.3,0.3,0.5,0.3
		c0.4,0.1,0.7,0.1,1.1,0c0.6-0.1,0.9-0.4,1.1-1c0.2-0.7,0.2-1.4,0.1-2.1c-0.1-0.9-0.1-1.8-0.1-2.7c0.2-1.6,0.2-3.2,0.2-4.8
		c0-0.1,0-0.1,0-0.2c-0.3-0.4-0.1-0.8,0-1.2c0.4,0.5,0.6,0.6,1.1,0.7c0.3,0,0.7-0.1,0.9-0.2c0.7-0.4,1.4-0.5,2.1-0.7
		c0.2,0,0.2,0,0.2,0.2c0,0.5,0,0.9,0,1.4c0,0.9-0.2,1-1,1c-0.4,0-0.6,0.2-0.7,0.6c-0.1,0.3-0.1,0.7-0.2,1.1c-0.2,0.9,0.2,1.5,0.9,2
		c0.2,0.1,0.4,0.2,0.6,0.3c0.1,0,0.2,0.1,0.2,0.3c-0.1,0.7-0.1,1.5-0.2,2.2c0,0.8-0.1,1.6,0.1,2.4c0,0.1,0.1,0.3,0.2,0.3
		c0.3,0.2,0.6,0.4,1,0.5c0.8,0.2,1.5-0.2,1.5-1.1c0-0.7,0.1-1.5,0.1-2.2c0.1-0.9,0.1-1.9,0.4-2.8c0.1-0.2,0.2-0.4,0.4-0.4
		c1.5-0.4,2.9-1,4.2-2C71.5,7.6,72.2,6.6,72.1,5.2z M68.6,5.7c-0.6,0.6-1.3,0.9-2.1,1.1c-0.5,0.1-0.7,0-0.8-0.5
		c-0.1-0.6-0.1-1.2-0.2-1.8c0-0.2,0-0.2,0.2-0.2c0.2,0,0.5,0,0.7,0c0.7,0,1.3,0.1,2,0.3C69.1,4.9,69.2,5.2,68.6,5.7z"/>
	<path class="st0" d="M15.3,9c-0.3-0.9-1-1.2-1.9-1.1c-0.9,0.1-1.8,0.3-2.7,0.4C9.4,8.6,8,8.8,6.6,9.2C6,9.3,5.7,9.7,5.7,10.2
		c0,0.2-0.1,0.5,0,0.7c0,0.5,0.2,1,0.5,1.3c0.2,0.1,0.3,0.3,0.6,0.2c0.7-0.1,1.4-0.2,2-0.3c0.9-0.2,1.7-0.3,2.6-0.5
		c0.2,0,0.3,0,0.3,0.2c0,0.2,0,0.4-0.2,0.6c-0.5,0.6-1.1,0.9-1.8,1c-0.5,0.1-1,0.1-1.4,0.3c-0.3,0.1-0.6,0.1-0.9,0
		c-0.2-0.1-0.5-0.1-0.7,0c-0.2,0-0.5,0.1-0.6-0.1c-0.2-0.2-0.4-0.2-0.6-0.2c-0.6-0.1-1.3-0.2-1.8-0.5c-0.5-0.3-0.8-0.7-0.7-1.3
		c0.1-0.5,0.3-0.9,0.5-1.4C4.4,8.6,5.6,7.1,7,5.9c0.8-0.7,1.7-1.3,2.7-1.8c0.6-0.2,0.8-0.2,1.1,0.4c0.2,0.3,0.3,0.6,0.5,0.9
		c0.1,0.1,0.2,0.3,0.4,0.3c0.7,0.2,1.5-0.5,1.5-1.2c0-0.7-0.2-1.3-0.5-2c-0.5-1.1-1.4-1.4-2.5-1.6c-0.8-0.1-1.4,0.4-2,0.7
		C7,2.3,6.2,3.2,5.3,3.9c0,0,0,0.1,0,0.1C5.2,4.4,4.9,4.6,4.6,4.7C4.5,4.8,4.4,4.9,4.3,5C3,6.4,1.9,7.9,1,9.6
		c-0.3,0.6-0.6,1.3-0.4,2c0.1,0.4,0.2,0.7,0.3,1.1c0.4,1.3,1,2.3,2.3,2.8c2.6,1.1,5.2,1.3,7.9,0c0.1,0,0.1-0.1,0.2-0.1
		c0.1,0.1,0,0.2,0,0.2c0,0.6-0.1,1.1-0.1,1.7c0,0.3,0,0.5,0.1,0.8c0.1,0.8,0.4,1.1,1.2,1.3c0.1,0,0.2,0,0.3,0
		c0.9,0.1,1.6-0.4,1.6-1.3c0-1,0-2,0.1-3c0.2-1.4,0.6-2.7,1.2-3.9c0.1-0.3,0.2-0.6,0.2-0.9C15.7,10,15.5,9.5,15.3,9z"/>
	<path class="st0" d="M73.7,11.8c0.1,0,0.3-0.1,0.4-0.1c1.9-0.3,3.9-0.5,5.8-0.8c0.6-0.1,1.1-0.3,1.2-0.9c0.2-0.9,0-1.8-0.5-2.5
		c-0.2-0.2-0.6-0.3-0.8-0.2c-1.1,0.5-2.2,0.8-3.4,0.9c-0.4,0.1-0.7,0.1-1.1,0.1c-0.4,0-0.5-0.1-0.4-0.5C75,7.5,75.2,7.3,75.4,7
		c0.2-0.3,0.4-0.5,0.8-0.6c1-0.3,2-0.5,2.9-0.7c1.2-0.3,2.5-0.5,3.7-0.8c0.5-0.1,0.7-0.4,0.8-0.8c0.2-1.1-0.1-2-0.8-2.9
		c-0.3-0.3-0.6-0.4-1.1-0.3c-2.2,0.7-4.5,1.3-6.8,1.7c-0.7,0.1-0.9,0.5-1.1,1c-0.1,0.2,0,0.3-0.1,0.5c-0.3,0.3-0.4,0.8-0.5,1.1
		c-0.4,1-1,2-1.5,3c-0.6,1.3-1.1,2.7-1.1,4.2c0,2.2,1.1,3.7,3.2,4.4c1.5,0.5,2.9,0.4,4.3-0.3c1-0.5,1.4-1.4,1.2-2.7
		c-0.1-0.5-0.2-0.9-0.6-1.2c-0.1-0.1-0.2-0.2-0.4-0.2c-0.4,0-0.7,0.2-1,0.3c-0.9,0.4-1.9,0.6-2.9,0.6c-0.3,0-0.6-0.1-0.9-0.3
		c-0.2-0.2-0.3-0.4-0.3-0.8C73.2,12.1,73.4,11.9,73.7,11.8z"/>
	<path class="st0" d="M25.5,12.3c-0.6-0.4-1.3-0.9-1.9-1.3c-0.1-0.1-0.2-0.2,0-0.3c0.4-0.5,0.7-1,1-1.6c0.9-1.6,1-3.2,0.3-4.9
		c-0.5-1.1-1.1-2-2.2-2.6c-1-0.6-2-0.4-3-0.3c0,0-0.1,0-0.1,0.1c-0.1,0.1-0.3,0.1-0.5,0.1c-0.1,0-0.2,0-0.3,0.1
		c-0.8,0.4-1.2,1.1-1.4,1.9c-0.2,0.8-0.1,1.5,0.6,2c0.1,0.1,0.1,0.2,0.1,0.3c-0.1,0.7-0.3,1.3-0.4,2c-0.1,0.4-0.3,0.6-0.7,0.7
		c-0.4,0-0.6,0.4-0.7,0.7c-0.2,0.8-0.2,1.6,0.4,2.2c0.2,0.2,0.2,0.3,0.2,0.5c0,0.6-0.1,1.2-0.2,1.8c-0.1,0.8-0.1,1.6,0.2,2.4
		c0.2,0.6,0.8,1,1.4,1.1c0.5,0.1,1.2-0.2,1.2-1.1c-0.1-0.8-0.1-1.5-0.1-2.3c-0.1-0.4,0-0.9,0.2-1.3c0.1-0.2,0.1-0.2,0.3-0.1
		c0.3,0.1,0.5,0.3,0.7,0.5c1.2,0.9,2.2,2,3.3,3c0.8,0.8,1.8,0.8,2.5,0c0.2-0.2,0.3-0.5,0.5-0.7c0.4-0.6,0.3-1.5-0.2-2
		C26.1,12.7,25.8,12.5,25.5,12.3z M21.6,7.7c-0.3,0.3-0.6,0.6-1,0.8c-0.1,0.1-0.2,0.1-0.3,0.1c-0.2,0-0.2-0.1-0.2-0.3
		c0.2-1.1,0.4-2.3,0.5-3.4c0-0.2,0.1-0.3,0.3-0.3c0.8-0.1,1.5,0.5,1.5,1.3C22.4,6.5,22.1,7.1,21.6,7.7z"/>
	<path class="st0" d="M42.1,6.3c0.2-0.3,0.5-0.5,0.9-0.6c0.3,0,0.5-0.1,0.8-0.1c1.4-0.2,2.9-0.3,4.3-0.5c0.6-0.1,0.7-0.2,0.8-0.8
		c0-0.1,0-0.2,0-0.2c-0.1-0.8-0.5-1.4-1-2c-0.3-0.3-0.6-0.4-0.9-0.3c-0.8,0.1-1.5,0.2-2.3,0.3c-1.5,0.2-3,0.6-4.5,0.9
		C40.1,3,40,3,40,3.1c-0.5,0.4-0.9,0.9-0.9,1.6c0,0.4,0,0.9-0.2,1.2C38.5,6.6,38.2,7.3,38,8c-0.5,1.4-0.8,2.8-0.8,4.2
		c0,0.3,0,0.6,0,0.8c0.2,0.8,0.6,1.5,1,2.2c0.3,0.5,0.7,0.8,1.2,1c1.4,0.5,2.8,0.8,4.2,0.5c1.5-0.3,2.2-1.2,1.9-2.7
		c-0.1-0.6-0.3-1.1-0.7-1.5c-0.2-0.2-0.5-0.3-0.7-0.1c-0.5,0.4-1,0.6-1.6,0.6c-0.8,0.1-1.6,0-2.3-0.4c-0.3-0.2-0.3-0.3-0.3-0.6
		c0.1-0.3,0.3-0.5,0.6-0.5c0.8-0.2,1.7-0.3,2.5-0.4c0.3,0,0.6-0.2,0.9-0.2c1-0.1,2-0.3,2.9-0.7c0.3-0.1,0.4-0.3,0.4-0.6
		c0.1-1-0.2-1.8-0.9-2.5c-0.4-0.4-0.7-0.4-1.1-0.2c-1,0.5-2.1,0.8-3.2,0.9c-0.5,0.1-0.6-0.2-0.5-0.6C41.7,6.9,41.9,6.6,42.1,6.3z"/>
	<path class="st0" d="M34.8,7.4c-0.5,0.1-0.9,0.2-1.4,0.3c-0.6,0.1-1.3,0.3-2,0.3c-0.4,0-0.5-0.1-0.4-0.5c0-0.2,0.1-0.3,0.1-0.5
		c0.1-0.2,0.2-0.4,0.4-0.5c0.9-0.5,1.8-0.6,2.8-0.9c1-0.3,2.1-0.3,3.1-0.6C38,4.9,38.2,4.4,38,3.9c-0.2-0.6-0.5-1.3-0.9-1.8
		c-0.1-0.2-0.3-0.3-0.6-0.4c-0.3-0.1-0.6-0.1-0.8,0c-0.8,0.1-1.6,0.3-2.4,0.5c-1.1,0.2-2.2,0.6-3.3,0.7c-0.1,0-0.2,0.1-0.2,0.1
		c-0.3,0.2-0.6,0.4-1,0.4c-0.3,0-0.5,0.1-0.8,0.3c-0.7,0.5-1,2.2-0.3,2.8c0.3,0.2,0.6,0.5,0.6,0.9c0,0.4-0.2,0.7-0.4,1
		c-0.5,1.1-0.9,2.2-0.9,3.4c0,0.9,0.2,1.7,0.5,2.5c0.1,0.2,0.2,0.4,0.4,0.5c0.2,0.1,0.3,0.3,0.4,0.5c0,0.2,0.1,0.2,0.3,0.3
		c0.8,0.5,1.8,0.9,2.7,1.1c0.6,0.2,1.3,0.3,1.9,0.2c1.1-0.2,1.8-1,1.8-2.1c0-0.6-0.2-1-0.5-1.5c-0.5-0.6-0.7-0.7-1.4-0.4
		c-0.9,0.4-1.8,0.3-2.6-0.1c-0.3-0.1-0.4-0.3-0.4-0.7c0-0.3,0.2-0.6,0.6-0.6c0.1,0,0.3-0.1,0.4-0.1c1.3-0.3,2.5-0.4,3.8-0.5
		c0.4,0,0.8-0.1,1.2-0.2c0.2-0.1,0.5-0.2,0.5-0.5c0.2-1,0-1.8-0.7-2.5C35.5,7.4,35.2,7.3,34.8,7.4z"/>
	<path class="st0" d="M169.7,8.7c-0.4-0.8-1-1.4-1.8-1.8c-0.4-0.2-0.8-0.2-1.2-0.1c-0.6,0.2-1.3,0.3-1.9,0.5
		c-0.6,0.2-1.1,0.1-1.5-0.3c-0.2-0.2-0.5-0.3-0.8-0.2c-0.4,0.1-0.7,0-0.9-0.4c-0.3-0.5-0.5-0.5-1-0.3c-0.2,0.1-0.4,0.2-0.7,0.3
		c0-0.4,0-0.8,0.1-1.3c0-0.3,0-0.7-0.4-0.9c0.1,0,0.2-0.1,0.2-0.1c0.6-0.2,1.2-0.5,1.7-0.8c0.4-0.2,0.4-0.4,0.1-0.8
		c-0.4-0.5-0.8-0.9-1.3-1.2c-0.4-0.3-1-0.2-1.3,0.1c-0.7,0.6-1.5,1.2-2.2,1.7c-0.5,0.3-1,0.7-1.5,1c-0.3,0.2-0.3,0.4,0,0.7
		c0.2,0.2,0.4,0.3,0.6,0.5c0.2,0.2,0.5,0.2,0.7,0.1c0.4-0.2,0.8-0.3,1.2-0.5c0,0.7-0.1,1.3-0.1,2c0,0.2-0.1,0.2-0.2,0.2
		c-1.5,0.6-2.9,1.1-4.4,1.5c-0.6,0.1-0.6,0.3-0.7,0.9c0,0.2,0,0.4,0.1,0.6c0,0.2,0.2,0.4,0.4,0.4c0.6,0.3,1.2,0.5,1.8,0.1
		c0.1,0,0.1-0.1,0.2-0.1c0.7-0.3,1.5-0.7,2.2-1c0,0.1,0,0.2,0,0.2c-0.6,0.9-1.2,1.8-1.9,2.6c-0.5,0.6-1,1.2-1.7,1.6
		c-0.2,0.1-0.2,0.4,0,0.5c0.1,0.1,0.3,0.2,0.4,0.2c0.6,0.2,1.1,0.4,1.7,0c0.2-0.2,0.5-0.3,0.7-0.5c0.4-0.4,0.7-0.8,1-1.3
		c0,0,0,0.1,0,0.1c-0.1,1.2-0.1,2.4-0.3,3.7c0,0.1-0.1,0.2,0.1,0.2c0.4,0.2,0.8,0.3,1.2,0.2c0.6-0.1,0.9-0.7,0.9-1.4
		c0-0.8,0.1-1.5,0.1-2.3c0-0.3,0-0.6,0.1-1c0.1,0,0.2,0.1,0.2,0.2c0.3,0.3,0.7,0.6,1,0.9c0.3,0.3,0.6,0.2,0.8-0.1
		c0.1-0.2,0.3-0.4,0.4-0.6c0.3-0.6,0.2-1.1-0.3-1.6c-0.4-0.4-0.9-0.6-1.3-0.8c-0.8-0.4-0.8-0.4-0.5-1.3c0.1-0.3,0.2-0.5,0.1-0.8
		c-0.1-0.1,0-0.2,0.1-0.2c0.5-0.2,1-0.4,1.5-0.7c0.2-0.1,0.2,0,0.2,0.1c0.3,1.9,0.4,3.9,0.7,5.8c0,0.3,0.3,0.6,0.6,0.5
		c0.5,0,0.9-0.1,1.3-0.5c0.2-0.2,0.3-0.1,0.4,0c0.2,0.2,0.4,0.3,0.6,0.4c0.2,0.1,0.5,0.1,0.7,0.1c0.7-0.2,1.4-0.6,2-1.1
		c0.9-0.8,1.3-1.9,1.6-3C169.9,9.5,169.9,9.1,169.7,8.7z M167.6,10.1c-0.4,0.7-0.9,1.3-1.7,1.6c-0.3,0.1-0.6,0.2-0.9,0.2
		c-0.2,0.1-0.2,0-0.3-0.2c-0.1-0.7-0.2-1.3-0.3-2c0-0.1,0-0.2,0.1-0.2c0.5-0.2,1-0.3,1.5-0.6c0.7-0.3,1.2-0.1,1.5,0.6
		C167.7,9.7,167.7,9.9,167.6,10.1z"/>
	<path class="st0" d="M146,13.2c0.1-0.1,0.2-0.1,0.3-0.2c0.3-0.1,0.7-0.2,1-0.3c0.7-0.2,1.5-0.3,2.2-0.5c0.2,0,0.3-0.1,0.4,0.1
		c0.2,0.2,0.3,0.2,0.5,0c0.4-0.5,0.9-0.9,1.1-1.5c0.3-0.8,0.6-1.7,0.8-2.5c0.1-0.4,0.1-0.8-0.2-1.2c-0.3-0.3-0.6-0.5-0.8-0.8
		c-0.1-0.1-0.2-0.1-0.4-0.1c-0.8,0.3-1.7,0.5-2.5,0.7c-0.1,0-0.2,0.1-0.3,0c0.6-0.5,1-1,1.5-1.6c0.3-0.3,0.3-0.7,0.2-1.1
		c-0.1-0.3-0.3-0.6-0.4-0.8c-0.1-0.2-0.3-0.3-0.5-0.3c-0.2,0-0.3,0-0.5,0.1c-0.4,0.1-0.9,0.3-1.3,0.5c-0.2,0.1-0.4,0.2-0.6,0.2
		c0.3-0.4,0.5-0.7,0.7-1c0.2-0.2,0.2-0.4,0.1-0.6c-0.2-0.6-0.7-1-1.2-1.3c-0.3-0.2-0.6-0.1-0.8,0.3c-0.8,1.7-1.8,3.4-2.8,5
		c-0.4,0.6-0.5,0.6,0.2,1.1c0.6,0.4,1.4,0.2,1.8-0.3c0.3-0.4,0.5-0.8,0.8-1.2c0.1-0.1,0.1-0.2,0.3-0.2c0.4-0.1,0.8-0.3,1.2-0.4
		c0.2-0.1,0.5-0.1,0.7-0.1c-0.3,0.4-0.6,0.8-1,1.1c-1.5,1.1-3,2.1-4.8,2.7c-0.3,0.1-0.5,0.2-0.8,0.2c-0.2,0.1-0.3,0.2-0.2,0.5
		c0.2,0.7,0.6,1.1,1.2,1.3c0.1,0,0.2,0.1,0.4,0c0.3-0.1,0.5-0.2,0.9-0.4c-0.4,1-0.5,2.1-0.7,3.1c-0.1,0.3-0.1,0.6,0.1,0.9
		c0.4,0.7,0.9,1.3,1.5,1.7c0.3,0.2,0.7,0.4,1.1,0.5c1.9,0.5,3.7,0.2,5.5-0.6c0.5-0.2,0.7-0.6,0.9-1c0.3-0.8,0-1.5-0.5-2.1
		c-0.1-0.1-0.2-0.2-0.3,0c-0.2,0.3-0.4,0.5-0.7,0.7c-0.6,0.3-1.2,0.6-1.9,0.8c-0.7,0.2-1.3,0.4-2,0.3c-1.1-0.1-1.9-0.7-1.6-2
		C144.9,13.4,145.6,13.5,146,13.2z M148.3,10.1c0.1-0.3,0.2-0.7,0.1-1c0-0.2,0-0.3,0.2-0.3c0.5-0.1,0.9-0.3,1.4-0.4
		c0.3-0.1,0.4,0,0.3,0.3c-0.1,0.5-0.2,1-0.4,1.5c-0.1,0.1-0.2,0.2-0.3,0.2c-0.4,0-0.7,0.1-1,0.2c-0.1,0-0.2,0.1-0.3,0.1
		C148.2,10.4,148.2,10.3,148.3,10.1z M145.2,9.9c0-0.1,0.1-0.1,0.2-0.1c0.4-0.1,0.9-0.3,1.3-0.4c0.1,0.2,0,0.4-0.1,0.5
		c-0.1,0.4-0.2,0.9-0.3,1.3c0,0.1-0.1,0.2-0.2,0.2c-0.4,0.2-0.9,0.3-1.4,0.5C144.9,11.2,145,10.5,145.2,9.9z"/>
	<path class="st0" d="M183.1,8.6c-0.2-0.1-0.3-0.1-0.5,0c-0.2,0.1-0.4,0.2-0.6,0.2c-1.3,0.2-2.6,0.3-4,0.5c-0.1,0-0.2,0-0.2-0.1
		c0-0.9,0-1.7,0-2.6c0-1,0.1-1.9-0.3-2.9c0.5-0.1,1-0.2,1.5-0.3c0.8-0.1,1.5-0.3,2.3-0.4c0.6-0.1,0.8-0.5,0.4-1
		c-0.2-0.3-0.4-0.6-0.6-0.9c-0.3-0.4-0.7-0.5-1.2-0.4c-2.8,0.8-5.6,1.2-8.4,1.4c-0.1,0-0.2,0-0.1,0.2c0.2,0.4,0.4,0.8,0.7,1.3
		c0.2,0.3,0.4,0.5,0.8,0.5c0.8,0,1.7,0,2.5,0c0.1,0,0.2,0,0.3,0.2c0.1,1,0.1,2,0.1,3c-0.1,0.8-0.1,1.5-0.1,2.3
		c0,0.2-0.1,0.2-0.2,0.3c-1.4,0.2-2.7,0.3-4.1,0.5c-0.4,0-0.8,0.1-1.2,0.3c-0.2,0.1-0.3,0.2-0.3,0.4c0,0.5,0.1,1.1,0.5,1.5
		c0.4,0.5,1,0.4,1.6,0.3c1.2-0.3,2.4-0.6,3.6-0.8c0,0.1,0,0.1,0,0.1c-0.1,1.6-0.1,3.2-0.3,4.8c0,0.3,0,0.6,0.2,0.8
		c0.2,0.3,0.6,0.4,1,0.5c0.7,0.2,1.1,0,1.2-0.7c0.1-0.3,0.1-0.7,0.2-1.1c0.2-1.5,0.3-3.1,0.3-4.6c0-0.1,0-0.2,0.2-0.2
		c0.7-0.1,1.4-0.2,2-0.2c1.2-0.1,2.4-0.1,3.6-0.1c0.2,0,0.3,0,0.5,0c0.2,0,0.3-0.1,0.3-0.4C184.5,9.8,183.8,9,183.1,8.6z"/>
	<path class="st0" d="M138,12c0.3-0.3,0.7-0.5,1.1-0.7c0.4-0.2,0.6-0.5,0.9-0.7c0.2-0.2,0.2-0.4,0-0.6c-0.4-0.4-0.9-0.7-1.4-0.8
		c-0.1,0-0.3,0-0.4,0.2c-0.3,0.5-0.8,0.9-1.2,1.4c-0.1,0.1-0.1,0.2-0.3,0.2c0-0.5,0.1-0.9,0.1-1.4c0-0.2,0.1-0.2,0.2-0.3
		c0.5-0.1,0.9-0.2,1.4-0.2c0.4-0.1,0.8-0.1,1.3-0.2c0.5-0.1,0.7-0.5,0.4-0.9c-0.1-0.2-0.3-0.4-0.4-0.6c-0.2-0.3-0.4-0.3-0.7-0.3
		c-0.8,0.1-1.5,0.2-2.2,0.4c-0.1,0-0.2,0.1-0.3,0c0.4-0.6,0.8-1,1.4-1.5c0.4-0.3,0.7-0.6,1-1c0.1-0.2,0.2-0.4,0-0.5
		c-0.1-0.1-0.2-0.2-0.2-0.3c-0.2-0.3-0.4-0.5-0.6-0.8c-0.2-0.4-0.5-0.5-1-0.4c-0.1,0-0.2,0.1-0.3,0.1c-0.2,0-0.4,0.2-0.6,0.1
		c0-0.2,0.1-0.3,0.1-0.4c0.1-0.3,0.2-0.7,0-1c-0.2-0.3-0.4-0.6-0.6-0.9c-0.2-0.2-0.4-0.2-0.6-0.2c-0.2,0.1-0.4,0.2-0.5,0.5
		c-0.4,1.8-1.5,3.3-2.6,4.7c-0.4,0.5-0.4,0.9-0.2,1.4c0.1,0.3,0.4,0.4,0.7,0.4c0.3-0.1,0.5-0.1,0.7-0.2c0.5-0.1,1-0.2,1.5-0.4
		c-0.2,0.4-0.5,0.7-0.8,1c-0.1,0.1-0.2,0.1-0.3,0.1c-1.1,0.2-2.2,0.5-3.3,0.6c-0.5,0.1-0.8,0.7-0.5,1.1c0.2,0.3,0.4,0.4,0.6,0.6
		c0.1,0.1,0.2,0.1,0.3,0.1c0.2-0.1,0.5-0.1,0.7-0.1c-0.1,0.2-0.2,0.4-0.2,0.6c-0.1,0.3-0.1,0.6,0.2,0.8c0.5,0.3,1,0.6,1.5,0.7
		c0.5,0.1,1.1-0.3,1.2-0.8c0-0.2,0-0.4-0.2-0.5c-0.6-0.3-1.2-0.5-1.8-0.8c-0.1,0-0.2,0-0.2-0.1c0.9-0.2,1.8-0.5,2.8-0.7
		c0.4-0.1,0.4-0.1,0.4,0.4c-0.1,1.6-0.3,3.2-0.5,4.8c-0.1,0.9-0.4,1.2-1.3,1.4c0,0,0,0-0.1,0c0.3,0.4,0.5,0.7,0.9,1
		c0.3,0.2,0.5,0.2,0.8,0c0.1-0.1,0.3-0.2,0.4-0.2c0.6-0.3,0.8-0.9,0.9-1.5c0.1-1.1,0.2-2.1,0.3-3.2c0-0.3,0.1-0.3,0.3-0.2
		C137.2,12.2,137.7,12.2,138,12z M136.3,4.7c-0.2,0.3-0.3,0.5-0.7,0.6c-0.4,0.1-0.9,0.2-1.4,0.2c0.2-0.3,0.4-0.6,0.6-0.8
		c0,0,0,0,0.1,0c0.4,0.1,0.8-0.2,1.2-0.2c0.1,0,0.1-0.1,0.2,0C136.3,4.6,136.3,4.6,136.3,4.7z"/>
	<path class="st0" d="M129.5,10.6c0-0.2-0.1-0.4-0.1-0.7c-0.1-0.3-0.2-0.5-0.5-0.6c-0.2-0.1-0.4-0.1-0.6-0.1c-0.2,0-0.3,0-0.3,0.3
		c0,0.1,0,0.2,0,0.4c0,0.1,0,0.1-0.1,0.2c-0.3,0.1-0.6,0.2-0.9,0.3c0.3-0.3,0.5-0.6,0.7-0.8c0.5-0.6,1.1-1.2,1.6-1.9
		c0.3-0.4,0.1-1-0.3-1.2c-0.2-0.1-0.4-0.1-0.6-0.2c-0.3,0-0.7,0-1-0.2c0.1-0.1,0.1-0.2,0.2-0.2c0.4-0.3,0.7-0.7,1.1-1
		c0.6-0.5,1.1-1.1,1.4-1.9c0.3-0.8-0.3-1.8-1.2-1.8c-0.2,0-0.5,0-0.6,0.3c-0.6,1.7-1.7,3.1-3,4.3c-0.4,0.4-0.5,0.7-0.3,1.2
		c0.1,0.4,0.5,0.4,0.8,0.4c0.5,0,0.9,0,1.4,0.1c-0.1,0.3-0.3,0.6-0.5,0.8c-0.6,0.8-1.2,1.5-1.8,2.2c-0.3,0.3-0.3,0.6-0.1,0.9
		c0.1,0.3,0.3,0.5,0.5,0.7c0.3,0.3,0.6,0.4,1,0.2c0.2-0.1,0.4-0.2,0.5-0.3c0.3-0.2,0.6-0.3,0.9-0.5c0.1,0,0.2-0.1,0.2,0.1
		c0.1,0.2,0.2,0.2,0.4,0.2c0.2,0,0.4-0.1,0.6-0.1C129.2,11.4,129.5,11,129.5,10.6z"/>
	<path class="st0" d="M180.7,4.1c-0.5,0.7-1,1.5-1.6,2.1c-0.3,0.3-0.6,0.6-0.7,1.1c0,0.1,0,0.2,0,0.3c0.3,0.6,0.8,0.6,1.2,0.7
		c0.4,0,0.6-0.1,0.8-0.3c0.8-0.6,1.5-1.3,2.3-1.9c0,0,0.1-0.1,0.1-0.1c0.5-0.5,0.5-1.2-0.2-1.6c-0.4-0.2-0.9-0.4-1.3-0.5
		C181,3.8,180.7,3.6,180.7,4.1z"/>
	<path class="st0" d="M172.6,9.2c0.1,0.1,0.3,0.2,0.5,0.1c0.5-0.2,0.9-0.4,1.3-0.7c0.1-0.1,0.1-0.2,0.1-0.3
		c-0.3-0.8-0.6-1.6-0.9-2.4c-0.1-0.4-0.6-0.6-1-0.6c-0.3,0-0.6,0.1-0.8,0.2c-0.5,0.1-0.7,0.6-0.5,1.1c0.2,0.5,0.4,0.9,0.5,1.4
		C171.9,8.5,172.2,8.9,172.6,9.2z"/>
	<path class="st0" d="M138.7,13c-0.4-0.3-0.8-0.4-1.3-0.2c-0.1,0-0.2,0-0.3,0c-0.1,0-0.3-0.1-0.4,0.1c-0.1,0.2,0.1,0.3,0.1,0.4
		c0,0,0,0,0,0c0.3,0.2,0.5,0.5,0.7,0.8c0.4,0.6,0.9,1.2,1.3,1.8c0.2,0.3,0.4,0.3,0.7,0.2c0.1-0.1,0.3-0.2,0.4-0.3
		c0.6-0.4,0.6-1.2,0.1-1.7C139.7,13.8,139.2,13.4,138.7,13z"/>
	<path class="st0" d="M133.9,14c0.4-0.3,0.7-0.7,0.5-1.3c0,0,0-0.1,0-0.1c0-0.1,0.1-0.2,0-0.3c-0.1-0.1-0.2-0.1-0.4,0
		c-1.1,0.7-2.2,1.3-3.4,1.7c-0.3,0.1-0.3,0.2-0.2,0.5c0.2,0.7,0.7,1.1,1.5,1.1c0.2,0,0.4,0,0.6-0.2C133,15,133.4,14.5,133.9,14z"/>
	<path class="st0" d="M127.7,13.1c0-0.1-0.1-0.1-0.1-0.2c-0.2-0.1-0.5-0.1-0.7-0.1c-0.2,0-0.2,0.2-0.2,0.3c0,0-0.1,0.1-0.1,0.1
		c-0.2,0.2-0.3,0.3-0.2,0.6c0,0.2,0,0.4,0.1,0.7c0.1,0.4,0.4,0.7,0.8,0.6c0.2,0,0.4-0.1,0.6-0.1c0.3,0,0.4-0.1,0.4-0.5
		C128.1,14,127.9,13.5,127.7,13.1z"/>
	<path class="st0" d="M128.6,12.1c-0.1,0-0.2,0.1-0.1,0.2c0.1,0.1,0.1,0.3,0.1,0.5c0,0.3-0.1,0.6-0.1,0.8c0,0.3,0.1,0.4,0.4,0.5
		c0.3,0.1,0.6,0.1,0.8,0c0.4-0.1,0.4-0.2,0.4-0.6c0-0.1,0-0.3,0-0.5C130,12.3,129.3,11.9,128.6,12.1z"/>
</g>
</svg>
