<?xml version="1.0" encoding="utf-8"?>
<!-- Generator: Adobe Illustrator 18.1.1, SVG Export Plug-In . SVG Version: 6.00 Build 0)  -->
<svg version="1.1" id="Calque_1" xmlns="http://www.w3.org/2000/svg" xmlns:xlink="http://www.w3.org/1999/xlink" x="0px" y="0px"
	 viewBox="0 0 184.252 29.102" enable-background="new 0 0 184.252 29.102" xml:space="preserve">
<g>
	<path fill="#FFF" d="M58.044,6.093c-0.522,0.446-1.402,0.553-5.973,1.349c0,0-0.176,0.018-0.903,0.376
		c-1.062-0.006-2.796,0.791-3.309,1.078c-0.214,0.12-0.476,0.721-0.56,1.832c0.304,0.366,0.464,0.34,0.855,0.34
		c2.189,0,5.315-1.098,5.694-1.031c1.422,0.316,2.082,2.51,2.082,3.64c0,0.126-0.138,0.821-0.168,0.901
		c-0.177,0.476-1.034,0.874-2.068,0.968c-4.922,0.448-7.223,0.831-7.793,1.232c-0.112,0.079-0.281,0.624-0.281,0.925
		c0,1.16,2.465,1.459,2.883,1.459c1.527,0,2.292-0.813,2.849-0.813c0.669,0,2.041,1.618,2.041,3.438
		c0,1.194-0.698,3.147-3.744,3.147c-0.792,0-4.141-0.589-6.549-2.28c0,0,0.072-0.489-0.935-1.205
		c-0.34-0.582-0.966-2.645-0.966-4.222c0-3.501,1.732-5.827,1.967-7.183c0,0-0.825-1.16-1.147-1.589
		c-0.178-0.237-0.369-0.439-0.369-1.314c0-2.73,1.79-3.241,1.877-3.241l0.622,0.011c0,0,1.323-0.607,1.502-0.86l0.979-0.066
		c0.579-0.073,7.133-1.766,8.44-1.766c1.044,0,1.45,0.171,1.863,0.808c0.275,0.425,1.39,2.461,1.39,3.189
		C58.322,5.387,58.18,5.976,58.044,6.093z"/>
	<path fill="#FFF" d="M61.29,16.731c-0.148,0.144-0.312,0.695-0.35,1.024c-0.048,0.417,1.48,1.083,2.865,1.154
		c4.053,0.207,3.532-1.663,4.718-1.074c0.775,0.385,1.46,2.342,1.46,3.484c0,2.623-2.551,3.362-4.816,3.362
		c-3.105,0-5.884-1.45-5.884-1.45s-2.388-2.976-2.388-5.117c0-4.912,2.61-10.32,2.74-10.576c0,0,0.214-1.413,0.341-2.328
		c0.143-1.034,0.839-1.245,1.423-1.892c1.327-0.134,3.685-1.18,11.084-1.982c0.934-0.101,2.098,1.193,2.725,3.155
		c0.111,0.347-0.071,1.719-0.538,1.863c-0.278,0.086-1.02,0.171-7.004,0.796c-1.03,0.107-2.102,0.281-2.53,0.587
		c-0.478,0.341-1.393,1.863-1.523,2.373c-0.134,0.524,0.133,0.804,0.804,0.733c3.154-0.336,5.281-1.714,5.524-1.714
		c1.127,0,2.195,1.499,2.511,3.141c0.184,0.959-0.072,1.756-0.377,1.954c-0.92,0.597-2.393,0.973-3.956,1.276
		c-0.679,0.131-1.16,0.11-1.436,0.086c-0.135-0.012-0.463,0.217-0.654,0.244C63.747,16.149,61.692,16.339,61.29,16.731z"/>
	<path fill="#FFF" d="M129.321,3.894c0,1.228-0.355,2.033-0.792,2.201c-1.927,0.738-8.398,1.659-11.385,2.654
		c-0.543,0.181-1.514,1.808-1.514,2.441c0,0.326,0.374,0.435,0.933,0.361c4.313-0.569,5.062-0.94,6.862-1.747
		c0.302,0.02,0.734,0.057,0.984,0.325c0.517,0.554,1.045,1.644,1.045,3.231c0,0.969-0.426,1.992-2.115,2.247
		c-2.234,0.338-7.37,1.097-8.876,1.278c-0.756,0.091-1.193,0.286-1.261,0.384c-0.677,0.975-0.409,3.021,4.199,2.011
		c1.934-0.424,2.318-1.134,3.413-1.134c0.072,0,0.206,0.014,0.284,0.037c0.941,0.796,1.147,1.745,1.147,3.04
		c0,1.542-0.66,2.57-2.024,3.268c-0.111,0.057-0.621,0.157-0.67,0.166c-0.057,0.01-0.677,0.362-0.973,0.441
		c-0.806,0.216-1.418,0.259-1.714,0.259c-3.162,0-8.194-1.454-8.194-7.296c0-5.298,3.598-9,4.553-12.502
		c0,0,0.246-0.246,0.479-0.606c0.068-0.603,0.613-2.015,1.294-2.088c1.688-0.18,6.893-1.312,11.484-2.797
		c0.386-0.125,0.727-0.082,1.02,0.125C128.301,0.759,129.321,2.319,129.321,3.894z"/>
	<path fill="#FFF" d="M40.534,19.175c-0.937-1.054-3.963-2.719-5.001-3.78c0.447-0.508,2.875-3.928,2.875-6.63
		c0-3.817-2.768-8.39-6.493-8.39c0,0-1.085,0.019-2.402,0.122c-0.239,0.371-1.033,0.286-1.033,0.286
		c-1.308,0.588-2.521,1.572-2.521,4.729c0,0.566,0.791,1.152,1.269,1.592c-0.088,1.015-0.441,2.761-0.906,3.946
		c-0.168,0.429-1.375,0.598-1.375,0.598l-0.636,0.822c-0.413,2.45,0.008,2.742,0.854,3.843c0.113,1.294-0.392,3.535-0.392,4.808
		c0,0.918,0.35,0.818,0.166,1.762c0,0,0.144,0.156,0.216,0.375c0.322,0.971,1.431,1.829,2.493,1.829c1.09,0,1.552-0.822,1.552-1.21
		c0-1.087-0.28-4.412-0.254-4.715c0.091-1.049,0.526-1.625,0.526-1.625c0.715,0,3.899,2.889,6.617,5.66
		c0.41,0.418,1.227,0.847,1.95,0.847c1.654,0,2.334-1.866,2.807-2.296C41.106,21.412,41.14,19.857,40.534,19.175z M31.042,11.82
		c-0.158,0.085-0.631-0.078-0.69-0.136c0,0,0.838-4.909,0.911-5.966c1.179-0.328,2.746,0.322,2.746,1.883
		C34.008,8.949,33.386,10.564,31.042,11.82z"/>
	<path fill="#FFF" d="M108.718,1.714l-1.188-0.345l-0.613-0.311c-1.591-0.312-5.43-0.375-6.712-0.242
		c-0.217,0.022-1.06-0.186-1.421-0.267c-0.959,0.556-1.804,0.812-1.804,0.812c-0.217,0-0.828-0.249-0.828-0.249
		c-0.909,0.07-3.298,0.636-4.381,1.28c-0.503,0.299-0.836,0.854-0.993,1.166c-0.007,0.013-0.013,0.027-0.019,0.042
		c-0.038,0.089-0.184,0.238-0.207-0.002h0c-0.025-0.23-0.06-0.477-0.107-0.653c-0.3-1.116-1.689-1.98-2.532-1.98
		c-0.342,0-1.06,0.383-1.125,0.793c-0.082,0.516-0.138,2.832-0.384,5.081c-0.025,0.226-0.027,4.462-0.451,5.871
		c-0.097,0.021-0.398,0.13-0.491-0.011c-1.063-1.602-3.847-4.374-4.083-6.21c-0.218-1.695,0.06-4.363-0.814-5.052
		c-0.323-0.255-1.876-0.727-2.419-0.727c-0.658,0-1.215,0.29-1.515,0.71l-0.069,0.513l-0.483,0.73
		c-0.146,0.474-0.231,1.289-0.278,3.044l0.406,2.086c0,0-0.011,0.482-0.371,0.898l0.104,1.609c0,1.811-1.656,8.034-1.656,9.909
		c0,4.215,3.682,3.869,3.895,3.69c0.264-0.222,0.79-1.122,0.815-1.381c0.249-2.49,0.504-6.738,1.176-7.986
		c0.137-0.254,0.487-0.378,0.667-0.208c0.589,0.556,1.242,1.808,1.324,1.924c0.655,0.93,2.564,3.246,2.923,5.328
		c0.03,0.174-0.003,0.595,0.054,0.921c0.123,0.709,0.424,1.532,1.384,2.332c0.262,0.218,1.307,0.348,2.007,0.228
		c0.7-0.12,1.974-0.257,1.974-3.546c0-2.134-0.35-2.99-0.323-3.401c0.027-0.411,0.498-4.313,0.498-9.737c0,0-0.25-0.489-0.346-0.785
		c0.13-0.467,0.195-0.835,0.228-1.084l0,0c0.019-0.134,0.089-0.233,0.142-0.122l0,0c0.039,0.078,0.086,0.165,0.138,0.248
		c0.272,0.432,0.892,0.805,1.628,0.805c1.168,0,2.698-1.367,3.757-1.12c0.145,0.034,0.302-0.224,1.133-0.295
		c0.019,0.505,0.028,1.602-0.109,3.126c-0.063,0.704-0.384,0.859-1.691,0.859c-0.477,0-0.78,0.379-0.919,0.685
		c-0.173,0.382-0.508,2.221-0.508,2.727c0,1.03,1.15,2.356,2.547,2.729c0.087,0.431-0.33,3.756-0.33,5.428
		c0,1.673,0.399,2.43,0.471,2.498c0.098,0.092,1.28,0.961,2.187,0.961c0.682,0,1.454-0.392,1.587-0.666
		c0.078-0.16,0.275-0.603,0.294-1.429c0.087-3.822,0.517-7.853,0.996-7.994c2.297-0.678,4.522-1.536,6.795-3.19
		c1.172-0.852,2.644-2.625,2.644-4.399C111.321,5.034,109.818,2.416,108.718,1.714z M101.97,9.364
		c-0.288-0.001-0.47-0.092-0.546-0.329c-0.272-0.849-0.394-2.645-0.394-3.601c1.001-0.208,5.396,0.063,5.396,1.196
		C106.426,7.653,103.47,9.369,101.97,9.364z"/>
	<path fill="#FFF" d="M23.652,15.345c0-0.68-0.663-2.963-1.147-3.506c-0.614-0.688-1.335-0.852-2.222-0.852
		c-0.585,0-10.401,1.513-11.632,2.275c-0.589,0.365-0.81,1.199-0.81,2.411c0,1.698,1.12,2.454,1.439,2.454
		c0.717,0,5.701-0.967,7.492-1.301c0.368-0.068,0.511,0.085,0.507,0.233c0,0.436-0.124,0.947-0.318,1.163
		c-0.695,0.776-1.742,1.252-2.646,1.547c-1.413-0.272-2.604,0.93-4.023,0.23c-0.612-0.008-1.494,0.435-1.915-0.249
		c-1.424-0.319-2.946-0.416-4.086-1.361c-0.431-0.408-0.543-0.89-0.543-1.474c0-1.542,2.301-5.502,6.216-9.184
		c0.812-0.764,3.729-2.902,5.013-2.902c0.859,0,1.159,1.915,1.841,2.641c0.169,0.18,0.881,0.199,1.232,0.046
		c0.752-0.327,1.342-0.733,1.342-1.616c0-1.978-0.775-3.585-1.422-4.38c-0.409-0.502-2.332-1.328-3.104-1.328
		c-1.644,0-2.417,0.977-3.021,1C9.41,2.688,8.251,4.063,7.755,4.51C7.561,4.685,7.318,4.749,7.318,4.749S7.168,5.29,6.92,5.64
		C6.83,5.695,5.974,6.261,5.974,6.261C4.852,7.349,0,13.414,0,15.681c0,2.128,1.414,5.098,1.935,5.584
		c1.776,1.659,5.072,2.825,8.788,2.825c2.604,0,5.027-1.027,5.754-1.427l0,0c0.177-0.102,0.298-0.088,0.278,0.105
		c-0.024,0.219-0.055,0.521-0.069,0.762c-0.016,0.254-0.137,1.528-0.137,2.39c0,1.509,0.41,2.284,0.825,2.683
		c0.191,0.183,1.462,0.5,2.291,0.5c0.412,0,1.713-0.614,1.713-1.967c0-0.785-0.088-1.839-0.074-2.094
		C21.666,18.309,23.652,16.458,23.652,15.345z"/>
	<path fill="#FFF" d="M184.126,4.051c-0.364-1.629-1.621-3.122-2.682-3.361c-0.957,0.216-8.82,1.723-13.987,2.399
		c-0.712,0.093-1.591,0.127-1.591,0.127l-0.589,0.3c0,0-1.03,0.089-1.522,0.448c-0.669,0.489-1.566,1.441-1.81,2.927l0.101,1.352
		c-1.597,3.172-2.673,5.721-2.673,9.177c0,0.068,0.003,0.144,0.008,0.221c0.003,0.255-0.026,0.381-0.096,0.317
		c-0.08-0.124-0.182-0.271-0.292-0.396c-0.616-0.704-0.821-0.798-1.105-0.798c-0.849,0-1.489,1.593-4.344,1.593
		c-2.569,0-7.39-2.692-7.39-4.096c0-3.09,4.114-6.95,7.176-6.95c0.536,0,0.675,0.153,0.675,0.519c0,0.61-0.458,1.566-0.458,2.172
		c0,1.475,2.22,2.535,3.386,2.535c0.336,0,2.731-0.881,2.731-4.359c0-2.044-1.491-5.414-3.94-5.414
		c-3.081,0-7.697,1.633-10.788,3.789c0,0-0.163,0.38-0.433,0.634c-0.27,0.254-1.015,0.757-1.015,0.757
		c-0.736,0.946-1.324,2.203-1.525,2.658c-0.059,0.134-0.127,0.308-0.194,0.488c0,0.001-0.001,0.001-0.001,0.002
		c-0.133,0.354-0.35,0.473-0.399,0.266c-0.018-0.178-0.039-0.405-0.062-0.696c-0.104-1.314-0.215-2.112-0.413-3.083
		c0,0-0.345-0.933-0.435-1.359c-0.026-0.122-0.041-0.635-0.041-0.635c-0.72-2.759-2.411-4.566-2.646-4.652
		c-1.118-0.408-1.397-0.513-1.884-0.203c-1.911,1.218-4.152,4.929-7.6,11.296c0,0-0.555,0.627-1.333,1.09
		c0.092,0.976,0.029,1.49-0.059,1.77c-0.686,2.192-2.672,4.939-2.582,5.504l0.109,0.668l-0.076,0.792
		c0,0.509,1.572,2.347,2.885,2.347c0.108,0,0.23-0.011,0.304-0.031c1.32-1.171,1.7-3.449,2.877-5.362
		c0.13-0.212,0.173-0.249,0.49-0.368c0.758-0.284,2.293-0.543,2.964-0.624c0.671-0.081,1.259,0.063,1.259,0.063l0.586-0.193
		c0.55-0.031,0.846,0.134,0.846,0.576c0,2.157,0.044,3.918,0.191,4.575c0.231,1.037,1.192,1.745,3.094,1.891
		c0.209,0,0.987-0.468,1.225-1.161c0.378-1.1,0.145-2.492,0.145-3.688c0-1.789,0.056-2.854,0.104-3.436
		c0.043-0.196,0.184-0.255,0.245-0.072c0,0.001,0.001,0.002,0.001,0.003c0.184,0.487,0.505,1.21,0.937,1.726
		c2.372,2.83,6.385,6.138,11.988,6.489c2.233,0.14,3.878-0.996,4.74-3.19c0.187-0.477,0.319-0.896,0.388-1.132
		c0.045-0.065,0.129-0.042,0.194,0.076c0,0,0,0,0.001,0.001c0.112,0.203,0.301,0.506,0.595,0.877
		c1.927,2.424,4.663,3.179,8.112,2.658c3.843-0.58,4.365-0.974,4.69-1.395c0.535-0.694,0.737-1.74,0.813-2.574
		c0.056-0.619,0.134-1.351-0.391-1.875c-0.596-0.595-2.439,0.008-4.87,0.421c-3.221,0.547-4.577-0.813-4.538-1.23
		c0.023-0.251,0.148-0.76,0.476-0.843c0.321-0.081,0.983,0.05,1.28,0.124c0.122-0.007,1.916-0.345,3.26-0.345
		c0.494,0,1.076,0.073,1.272,0.081c0,0,2.117-0.156,3.373-0.406c0.77-0.153,1.47-0.833,1.533-1.254
		c0.188-1.238,0.048-1.982-0.183-2.459c-0.888-1.829-1.939-2.035-2.165-1.987c-1.12,0.238-3.364,0.898-6.376,0.741
		c-0.366-0.019-0.594-0.449-0.56-0.736c0.094-0.779,1.055-2.058,1.966-2.233c2.417-0.462,9.579-1.177,12.209-1.309
		c1.647-0.083,3.38,0.42,3.708-0.139C184.402,5.806,184.219,4.466,184.126,4.051z M136.773,11.498
		c-0.194,0.381-1.343,0.667-3.277,0.693c-0.086,0.001-0.181-0.171-0.135-0.28c0.799-1.905,2.347-5.257,2.556-5.282
		c0.214-0.027,0.543,0.084,0.681,0.261C136.996,7.402,137.019,11.015,136.773,11.498z"/>
</g>
</svg>
