<?xml version="1.0" encoding="utf-8"?>
<!-- Generator: Adobe Illustrator 22.0.1, SVG Export Plug-In . SVG Version: 6.00 Build 0)  -->
<svg version="1.1" id="Livello_1" xmlns="http://www.w3.org/2000/svg" xmlns:xlink="http://www.w3.org/1999/xlink" x="0px" y="0px"
	 viewBox="0 0 1080 185" style="enable-background:new 0 0 1080 185;" xml:space="preserve">
<style type="text/css">
	.st0{fill:#FDFEFD;}
</style>
<g>
	<path class="st0" d="M1062,14.7c-1.8-0.9-3.6-2.7-5.4-1.8c-15.3,2.7-31.6,5.4-46.9,9c-15.3,2.7-31.6,3.6-47.8,7.2
		c-9,1.8-18,11.7-17.1,21.7c0,3.6,0,7.2-1.8,10.8c0,0.9-0.9,0.9-0.9,1.8c-6.3,13.5-10.8,27.1-11.7,41.5c0,2.7,0,4.5,0,7.2
		c-0.9,0-0.9-0.9-1.8-0.9c-5.4-6.3-7.2-7.2-13.5-1.8c-7.2,5.4-15.3,7.2-23.5,5.4c-9.9-1.8-19-6.3-27.1-10.8c-3.6-1.8-6.3-4.5-9-7.2
		c-1.8-2.7-2.7-4.5-1.8-8.1c0-1.8,0.9-3.6,0.9-4.5c3.6-10.8,10.8-18,19.9-24.4c5.4-4.5,11.7-7.2,19-8.1c4.5,0,5.4,0.9,4.5,5.4
		c-0.9,2.7-0.9,4.5-1.8,7.2c-0.9,3.6,0,7.2,2.7,9.9c3.6,3.6,8.1,6.3,13.5,7.2c2.7,0.9,5.4,0,8.1-0.9c4.5-2.7,7.2-6.3,9-11.7
		c4.5-12.6,0.9-29.8-9-38.8c-3.6-3.6-8.1-5.4-12.6-5.4c-1.8,0-4.5,0-6.3,0c-19.9,2.7-37,9.9-54.1,20.8c-0.9,0.9-1.8,0.9-1.8,1.8
		c-0.9,1.8-1.8,3.6-3.6,4.5c-3.6,1.8-6.3,5.4-8.1,9c-1.8,3.6-3.6,7.2-5.4,10.8c0,0.9-0.9,1.8-1.8,2.7c-0.9-0.9-0.9-0.9-0.9-1.8
		c0-11.7-3.6-21.7-5.4-33.4c-1.8-8.1-5.4-14.4-10.8-21.7c-2.7-3.6-5.4-5.4-9-6.3c-2.7-0.9-5.4-0.9-7.2,0.9c-5.4,4.5-9.9,9-13.5,14.4
		c-9.9,14.4-18,29.8-27.1,45.1c-2.7,4.5-5.4,8.1-9,9.9c-0.9,0-0.9,0.9-0.9,1.8c0.9,7.2-1.8,12.6-4.5,19c-2.7,6.3-6.3,11.7-9.9,18
		c-0.9,1.8-1.8,2.7-0.9,4.5c0.9,2.7,0,4.5,0,7.2c0,0.9,0,1.8,0,2.7c3.6,5.4,7.2,9,13.5,11.7c3.6,0.9,4.5,0.9,7.2-2.7
		c2.7-3.6,4.5-8.1,6.3-12.6c1.8-5.4,4.5-10.8,7.2-15.3c0.9-0.9,0.9-2.7,2.7-2.7c7.2-2.7,14.4-4.5,22.6-3.6c1.8,0,3.6,0,5.4,0
		c3.6-0.9,5.4,0,5.4,4.5c0,7.2,0,15.3,0.9,22.6c0,5.4,2.7,9,7.2,10.8c2.7,0.9,5.4,1.8,8.1,2.7c3.6,0.9,6.3-0.9,8.1-3.6
		c0.9-1.8,1.8-2.7,2.7-4.5c0.9-3.6,0.9-7.2,0.9-9.9c0-9.9-0.9-19,0-28.9c0-0.9,0-1.8,0.9-1.8c0.9,0,0.9,0.9,0.9,1.8
		c0.9,2.7,2.7,5.4,4.5,8.1c16.2,19,35.2,32.5,60.5,37c6.3,0.9,12.6,1.8,19.9,0c9-2.7,14.4-9.9,18-18c0.9-1.8,1.8-3.6,1.8-6.3
		c0.9,0,0.9,0.9,1.8,1.8c5.4,8.1,12.6,14.4,22.6,18c7.2,2.7,14.4,2.7,21.7,1.8c9-0.9,18-2.7,26.2-4.5c3.6-0.9,6.3-2.7,8.1-6.3
		c2.7-5.4,3.6-11.7,3.6-18c0-5.4-2.7-7.2-8.1-7.2c-3.6,0-7.2,0.9-9.9,1.8c-7.2,0.9-14.4,3.6-21.7,2.7c-5.4,0-10.8-0.9-14.4-4.5
		c-1.8-1.8-2.7-3.6-1.8-5.4c0.9-2.7,2.7-2.7,4.5-2.7c4.5,0.9,9,0,12.6,0c3.6-0.9,8.1-0.9,11.7-0.9c9,0.9,17.1-0.9,25.3-1.8
		c4.5-0.9,8.1-2.7,9-7.2c1.8-6.3,0.9-13.5-3.6-19c-4.5-5.4-6.3-8.1-15.3-6.3c-9.9,2.7-20.8,3.6-31.6,3.6c-2.7,0-4.5-1.8-3.6-4.5
		c0-4.5,6.3-11.7,11.7-12.6c3.6-0.9,7.2-0.9,9.9-1.8c12.6-1.8,25.3-2.7,37.9-4.5c9-0.9,19-1.8,28.9-1.8c3.6,0,8.1,0.9,11.7,0.9
		c2.7,0,3.6-0.9,4.5-4.5c0.9-4.5,0.9-8.1-0.9-11.7C1071.1,24.6,1067.4,19.2,1062,14.7z M798.5,73.3c0,1.8-0.9,3.6-2.7,3.6
		c-5.4,1.8-10.8,1.8-16.2,1.8c-0.9,0-1.8-0.9-0.9-1.8c4.5-9.9,8.1-19,13.5-28.9c0-0.9,0.9-1.8,1.8-1.8c1.8,0,2.7,0.9,3.6,2.7
		c0.9,3.6,0.9,7.2,0.9,9.9c0,1.8,0,2.7,0,4.5l0,0C799.4,67.9,798.5,70.6,798.5,73.3z"/>
	<path class="st0" d="M650.5,48.1c-0.9-6.3-3.6-12.6-6.3-19c-4.5-9.9-13.5-13.5-22.6-15.3c-9.9-1.8-20.8-1.8-30.7-0.9
		c-2.7,0-5.4,0.9-8.1,0c-2.7-0.9-5.4-0.9-8.1,0.9c-3.6,1.8-7.2,3.6-11.7,1.8c0,0-0.9,0-1.8,0c-7.2,0.9-14.4,2.7-21.7,6.3
		c-3.6,0.9-5.4,3.6-7.2,6.3c0,0.9-0.9,1.8-1.8,1.8c0-0.9,0-0.9,0-1.8c-0.9-7.2-6.3-12.6-13.5-14.4c-3.6-0.9-8.1,1.8-8.1,6.3
		c-0.9,10.8-1.8,21.7-1.8,32.5c-0.9,9,0,19-1.8,28c0,0.9,0,1.8-1.8,1.8c-0.9,0-1.8,0-2.7-0.9c-4.5-5.4-9-10.8-13.5-16.2
		c-8.1-9-11.7-19.9-10.8-31.6c0-4.5,0-8.1-1.8-11.7c-0.9-2.7-2.7-4.5-5.4-5.4c-3.6-0.9-6.3-1.8-9.9-2.7c-3.6-0.9-6.3,0-9,2.7
		c-0.9,0.9-0.9,0.9-0.9,1.8c0,1.8-0.9,2.7-1.8,4.5c-0.9,1.8-1.8,3.6-1.8,5.4c-0.9,7.2-1.8,14.4,0.9,22.6c0.9,2.7,0.9,6.3-0.9,9
		c-0.9,0.9,0,1.8,0,2.7c0,3.6,0.9,7.2,0,10.8c-1.8,11.7-4.5,22.6-6.3,33.4c-1.8,8.1-3.6,15.3-2.7,23.5c0.9,10.8,9,19,19.9,18
		c0.9,0,2.7,0,3.6-0.9c1.8-2.7,3.6-5.4,4.5-9c0.9-6.3,0.9-11.7,1.8-18c0.9-8.1,1.8-16.2,3.6-24.4c0.9-1.8,0.9-3.6,2.7-3.6
		c1.8,0,2.7,1.8,3.6,2.7c4.5,6.3,9,12.6,13.5,19c1.8,2.7,2.7,4.5,4.5,7.2c2.7,5.4,5.4,10.8,5.4,17.1c0,5.4,2.7,9,6.3,12.6
		c0.9,0.9,2.7,2.7,4.5,2.7c3.6,0.9,6.3,0.9,9.9,0c5.4-0.9,8.1-3.6,9.9-9c1.8-6.3,1.8-12.6,0.9-19c-0.9-8.1-0.9-16.2-0.9-24.4
		c1.8-14.4,1.8-28.9,1.8-43.3c0-0.9,0-0.9,0-1.8c-2.7-3.6-0.9-7.2,0-10.8c3.6,4.5,5.4,5.4,9.9,6.3c2.7,0,6.3-0.9,8.1-1.8
		c6.3-3.6,12.6-4.5,19-6.3c1.8,0,1.8,0,1.8,1.8c0,4.5,0,8.1,0,12.6c0,8.1-1.8,9-9,9c-3.6,0-5.4,1.8-6.3,5.4
		c-0.9,2.7-0.9,6.3-1.8,9.9c-1.8,8.1,1.8,13.5,8.1,18c1.8,0.9,3.6,1.8,5.4,2.7c0.9,0,1.8,0.9,1.8,2.7c-0.9,6.3-0.9,13.5-1.8,19.9
		c0,7.2-0.9,14.4,0.9,21.7c0,0.9,0.9,2.7,1.8,2.7c2.7,1.8,5.4,3.6,9,4.5c7.2,1.8,13.5-1.8,13.5-9.9c0-6.3,0.9-13.5,0.9-19.9
		c0.9-8.1,0.9-17.1,3.6-25.3c0.9-1.8,1.8-3.6,3.6-3.6c13.5-3.6,26.2-9,37.9-18C645.1,69.7,651.4,60.7,650.5,48.1z M619,52.6
		c-5.4,5.4-11.7,8.1-19,9.9c-4.5,0.9-6.3,0-7.2-4.5c-0.9-5.4-0.9-10.8-1.8-16.2c0-1.8,0-1.8,1.8-1.8s4.5,0,6.3,0
		c6.3,0,11.7,0.9,18,2.7C623.5,45.4,624.4,48.1,619,52.6z"/>
	<path class="st0" d="M138,82.4c-2.7-8.1-9-10.8-17.1-9.9s-16.2,2.7-24.4,3.6c-11.7,2.7-24.4,4.5-37,8.1c-5.4,0.9-8.1,4.5-8.1,9
		c0,1.8-0.9,4.5,0,6.3c0,4.5,1.8,9,4.5,11.7c1.8,0.9,2.7,2.7,5.4,1.8c6.3-0.9,12.6-1.8,18-2.7c8.1-1.8,15.3-2.7,23.5-4.5
		c1.8,0,2.7,0,2.7,1.8c0,1.8,0,3.6-1.8,5.4c-4.5,5.4-9.9,8.1-16.2,9c-4.5,0.9-9,0.9-12.6,2.7c-2.7,0.9-5.4,0.9-8.1,0
		c-1.8-0.9-4.5-0.9-6.3,0c-1.8,0-4.5,0.9-5.4-0.9c-1.8-1.8-3.6-1.8-5.4-1.8c-5.4-0.9-11.7-1.8-16.2-4.5s-7.2-6.3-6.3-11.7
		c0.9-4.5,2.7-8.1,4.5-12.6c8.1-14.4,19-28,31.6-38.8c7.2-6.3,15.3-11.7,24.4-16.2c5.4-1.8,7.2-1.8,9.9,3.6c1.8,2.7,2.7,5.4,4.5,8.1
		c0.9,0.9,1.8,2.7,3.6,2.7c6.3,1.8,13.5-4.5,13.5-10.8s-1.8-11.7-4.5-18C110,13.8,101.9,11.1,92,9.3c-7.2-0.9-12.6,3.6-18,6.3
		c-10.8,6.3-18,14.4-26.2,20.8v0.9c-0.9,3.6-3.6,5.4-6.3,6.3c-0.9,0.9-1.8,1.8-2.7,2.7C27,58.9,17.1,72.4,8.9,87.8
		c-2.7,5.4-5.4,11.7-3.6,18c0.9,3.6,1.8,6.3,2.7,9.9c3.6,11.7,9,20.8,20.8,25.3c23.5,9.9,46.9,11.7,71.3,0c0.9,0,0.9-0.9,1.8-0.9
		c0.9,0.9,0,1.8,0,1.8c0,5.4-0.9,9.9-0.9,15.3c0,2.7,0,4.5,0.9,7.2c0.9,7.2,3.6,9.9,10.8,11.7c0.9,0,1.8,0,2.7,0
		c8.1,0.9,14.4-3.6,14.4-11.7c0-9,0-18,0.9-27.1c1.8-12.6,5.4-24.4,10.8-35.2c0.9-2.7,1.8-5.4,1.8-8.1
		C141.6,91.4,139.8,86.9,138,82.4z"/>
	<path class="st0" d="M665,107.6c0.9,0,2.7-0.9,3.6-0.9c17.1-2.7,35.2-4.5,52.3-7.2c5.4-0.9,9.9-2.7,10.8-8.1
		c1.8-8.1,0-16.2-4.5-22.6c-1.8-1.8-5.4-2.7-7.2-1.8c-9.9,4.5-19.9,7.2-30.7,8.1c-3.6,0.9-6.3,0.9-9.9,0.9s-4.5-0.9-3.6-4.5
		c0.9-2.7,2.7-4.5,4.5-7.2c1.8-2.7,3.6-4.5,7.2-5.4c9-2.7,18-4.5,26.2-6.3c10.8-2.7,22.6-4.5,33.4-7.2c4.5-0.9,6.3-3.6,7.2-7.2
		c1.8-9.9-0.9-18-7.2-26.2c-2.7-2.7-5.4-3.6-9.9-2.7c-19.9,6.3-40.6,11.7-61.4,15.3c-6.3,0.9-8.1,4.5-9.9,9c-0.9,1.8,0,2.7-0.9,4.5
		c-2.7,2.7-3.6,7.2-4.5,9.9c-3.6,9-9,18-13.5,27.1c-5.4,11.7-9.9,24.4-9.9,37.9c0,19.9,9.9,33.4,28.9,39.7
		c13.5,4.5,26.2,3.6,38.8-2.7c9-4.5,12.6-12.6,10.8-24.4c-0.9-4.5-1.8-8.1-5.4-10.8c-0.9-0.9-1.8-1.8-3.6-1.8c-3.6,0-6.3,1.8-9,2.7
		c-8.1,3.6-17.1,5.4-26.2,5.4c-2.7,0-5.4-0.9-8.1-2.7c-1.8-1.8-2.7-3.6-2.7-7.2C660.5,110.3,662.3,108.5,665,107.6z"/>
	<path class="st0" d="M230,112.2c-5.4-3.6-11.7-8.1-17.1-11.7c-0.9-0.9-1.8-1.8,0-2.7c3.6-4.5,6.3-9,9-14.4
		c8.1-14.4,9-28.9,2.7-44.2c-4.5-9.9-9.9-18-19.9-23.5c-9-5.4-18-3.6-27.1-2.7c0,0-0.9,0-0.9,0.9c-0.9,0.9-2.7,0.9-4.5,0.9
		c-0.9,0-1.8,0-2.7,0.9c-7.2,3.6-10.8,9.9-12.6,17.1s-0.9,13.5,5.4,18c0.9,0.9,0.9,1.8,0.9,2.7c-0.9,6.3-2.7,11.7-3.6,18
		c-0.9,3.6-2.7,5.4-6.3,6.3c-3.6,0-5.4,3.6-6.3,6.3c-1.8,7.2-1.8,14.4,3.6,19.9c1.8,1.8,1.8,2.7,1.8,4.5c0,5.4-0.9,10.8-1.8,16.2
		c-0.9,7.2-0.9,14.4,1.8,21.7c1.8,5.4,7.2,9,12.6,9.9c4.5,0.9,10.8-1.8,10.8-9.9c-0.9-7.2-0.9-13.5-0.9-20.8
		c-0.9-3.6,0-8.1,1.8-11.7c0.9-1.8,0.9-1.8,2.7-0.9c2.7,0.9,4.5,2.7,6.3,4.5c10.8,8.1,19.9,18,29.8,27.1c7.2,7.2,16.2,7.2,22.6,0
		c1.8-1.8,2.7-4.5,4.5-6.3c3.6-5.4,2.7-13.5-1.8-18C235.4,115.8,232.7,114,230,112.2z M194.8,70.6c-2.7,2.7-5.4,5.4-9,7.2
		c-0.9,0.9-1.8,0.9-2.7,0.9c-1.8,0-1.8-0.9-1.8-2.7c1.8-9.9,3.6-20.8,4.5-30.7c0-1.8,0.9-2.7,2.7-2.7c7.2-0.9,13.5,4.5,13.5,11.7
		C202.1,59.8,199.3,65.2,194.8,70.6z"/>
	<path class="st0" d="M379.8,58c1.8-2.7,4.5-4.5,8.1-5.4c2.7,0,4.5-0.9,7.2-0.9c12.6-1.8,26.2-2.7,38.8-4.5c5.4-0.9,6.3-1.8,7.2-7.2
		c0-0.9,0-1.8,0-1.8c-0.9-7.2-4.5-12.6-9-18c-2.7-2.7-5.4-3.6-8.1-2.7c-7.2,0.9-13.5,1.8-20.8,2.7c-13.5,1.8-27.1,5.4-40.6,8.1
		c-0.9,0-1.8,0-1.8,0.9c-4.5,3.6-8.1,8.1-8.1,14.4c0,3.6,0,8.1-1.8,10.8c-3.6,6.3-6.3,12.6-8.1,19c-4.5,12.6-7.2,25.3-7.2,37.9
		c0,2.7,0,5.4,0,7.2c1.8,7.2,5.4,13.5,9,19.9c2.7,4.5,6.3,7.2,10.8,9c12.6,4.5,25.3,7.2,37.9,4.5c13.5-2.7,19.9-10.8,17.1-24.4
		c-0.9-5.4-2.7-9.9-6.3-13.5c-1.8-1.8-4.5-2.7-6.3-0.9c-4.5,3.6-9,5.4-14.4,5.4c-7.2,0.9-14.4,0-20.8-3.6c-2.7-1.8-2.7-2.7-2.7-5.4
		c0.9-2.7,2.7-4.5,5.4-4.5c7.2-1.8,15.3-2.7,22.6-3.6c2.7,0,5.4-1.8,8.1-1.8c9-0.9,18-2.7,26.2-6.3c2.7-0.9,3.6-2.7,3.6-5.4
		c0.9-9-1.8-16.2-8.1-22.6c-3.6-3.6-6.3-3.6-9.9-1.8c-9,4.5-19,7.2-28.9,8.1c-4.5,0.9-5.4-1.8-4.5-5.4C376.2,63.4,378,60.7,379.8,58
		z"/>
	<path class="st0" d="M313.9,67.9c-4.5,0.9-8.1,1.8-12.6,2.7c-5.4,0.9-11.7,2.7-18,2.7c-3.6,0-4.5-0.9-3.6-4.5
		c0-1.8,0.9-2.7,0.9-4.5c0.9-1.8,1.8-3.6,3.6-4.5c8.1-4.5,16.2-5.4,25.3-8.1c9-2.7,19-2.7,28-5.4c5.4-0.9,7.2-5.4,5.4-9.9
		c-1.8-5.4-4.5-11.7-8.1-16.2c-0.9-1.8-2.7-2.7-5.4-3.6c-2.7-0.9-5.4-0.9-7.2,0c-7.2,0.9-14.4,2.7-21.7,4.5
		c-9.9,1.8-19.9,5.4-29.8,6.3c-0.9,0-1.8,0.9-1.8,0.9c-2.7,1.8-5.4,3.6-9,3.6c-2.7,0-4.5,0.9-7.2,2.7c-6.3,4.5-9,19.9-2.7,25.3
		c2.7,1.8,5.4,4.5,5.4,8.1s-1.8,6.3-3.6,9c-4.5,9.9-8.1,19.9-8.1,30.7c0,8.1,1.8,15.3,4.5,22.6c0.9,1.8,1.8,3.6,3.6,4.5
		c1.8,0.9,2.7,2.7,3.6,4.5c0,1.8,0.9,1.8,2.7,2.7c7.2,4.5,16.2,8.1,24.4,9.9c5.4,1.8,11.7,2.7,17.1,1.8c9.9-1.8,16.2-9,16.2-19
		c0-5.4-1.8-9-4.5-13.5c-4.5-5.4-6.3-6.3-12.6-3.6c-8.1,3.6-16.2,2.7-23.5-0.9c-2.7-0.9-3.6-2.7-3.6-6.3c0-2.7,1.8-5.4,5.4-5.4
		c0.9,0,2.7-0.9,3.6-0.9c11.7-2.7,22.6-3.6,34.3-4.5c3.6,0,7.2-0.9,10.8-1.8c1.8-0.9,4.5-1.8,4.5-4.5c1.8-9,0-16.2-6.3-22.6
		C320.3,67.9,317.6,67,313.9,67.9z"/>
</g>
</svg>
