<svg xmlns="http://www.w3.org/2000/svg" width="20.002" height="21.728" viewBox="0 0 20.002 21.728">
  <path id="Shape" d="M10,21.728h0L2.929,15.364A8.739,8.739,0,0,1,.192,10.756a8.137,8.137,0,0,1,.569-5.2A9.248,9.248,0,0,1,4.445,1.517a10.935,10.935,0,0,1,11.111,0,9.25,9.25,0,0,1,3.683,4.039,8.14,8.14,0,0,1,.569,5.2,8.734,8.734,0,0,1-2.737,4.608L10,21.727ZM10,2A8.38,8.38,0,0,0,5.679,3.18,7.2,7.2,0,0,0,2.814,6.322a6.325,6.325,0,0,0-.442,4.044A6.791,6.791,0,0,0,4.5,13.95L10,18.9l5.5-4.95a6.8,6.8,0,0,0,2.128-3.585,6.332,6.332,0,0,0-.443-4.044A7.193,7.193,0,0,0,14.321,3.18,8.382,8.382,0,0,0,10,2Zm0,9a2.337,2.337,0,0,1-1.571-.586,1.862,1.862,0,0,1,0-2.829,2.4,2.4,0,0,1,3.143,0,1.863,1.863,0,0,1,0,2.829A2.337,2.337,0,0,1,10,11Z" transform="translate(0.001 0)" fill="#212529"/>
</svg>
