<svg xmlns="http://www.w3.org/2000/svg" width="20.315" height="20.314" viewBox="0 0 20.315 20.314">
  <g id="Group" transform="translate(473 82)">
    <path id="Shape" d="M-454.1-61.686h0l-4.281-4.282A9,9,0,0,1-463.989-64H-464a9.01,9.01,0,0,1-9-9,9.01,9.01,0,0,1,9-9,9.01,9.01,0,0,1,9,9,8.988,8.988,0,0,1-1.968,5.617l4.283,4.281-1.415,1.415ZM-464-80a7.008,7.008,0,0,0-7,7,7.007,7.007,0,0,0,7,7h.013a6.939,6.939,0,0,0,4.862-1.975l.15-.15A6.939,6.939,0,0,0-457-73,7.008,7.008,0,0,0-464-80Z" fill="#fff"/>
  </g>
</svg>
