<svg xmlns="http://www.w3.org/2000/svg" width="28" height="28" viewBox="0 0 28 28">
  <path fill="#ffffff" fill-rule="evenodd" d="M21,6 L16,6 C15.724,6 15.5,5.776 15.5,5.5 C15.5,5.224 15.724,5 16,5 L21,5 C21.276,5 21.5,5.224 21.5,5.5 C21.5,5.776 21.276,6 21,6 M18,8 L16,8 C15.724,8 15.5,7.776 15.5,7.5 C15.5,7.224 15.724,7 16,7 L18,7 C18.276,7 18.5,7.224 18.5,7.5 C18.5,7.776 18.276,8 18,8 M24.5,2 C24.776,2 25,2.224 25,2.5 L25,10.5 C25,10.776 24.776,11 24.5,11 L19,11 L19,17.5 C19,17.776 18.776,18 18.5,18 C18.224,18 18,17.776 18,17.5 L18,16.707 L15.439,19.268 C14.967,19.74 14.34,20 13.672,20 L13,20 L13,25 L4,25 L4,22.5 C4,20.57 5.57,19 7.5,19 L13,19 L13.672,19 C14.066,19 14.453,18.84 14.732,18.561 L18,15.293 L18,11 L12.5,11 C12.224,11 12,10.776 12,10.5 L12,2.5 C12,2.224 12.224,2 12.5,2 L24.5,2 Z M8,17 C6.346,17 5,15.654 5,14 C5,12.346 6.346,11 8,11 C9.654,11 11,12.346 11,14 C11,15.654 9.654,17 8,17 Z"/>
</svg>
