<svg xmlns="http://www.w3.org/2000/svg" width="28" height="28" viewBox="0 0 28 28">
  <path fill="#898B92" fill-rule="evenodd" d="M19.6201,23.439 C21.7031,22.193 23.3401,20.285 24.2361,18 L22.0001,18 C21.3811,18 20.8491,17.624 20.6201,17.087 L18.1461,19.561 C18.0541,19.654 18.0001,19.783 18.0001,19.914 L18.0001,21.614 C18.0001,21.738 18.0461,21.858 18.1301,21.95 L19.6201,23.439 Z M3.0001,14 C3.0001,20.065 7.9341,25 14.0001,25 C15.6821,25 17.2711,24.609 18.6981,23.931 L17.4061,22.64 C17.1391,22.345 17.0001,21.987 17.0001,21.614 L17.0001,19.914 C17.0001,19.514 17.1561,19.137 17.4391,18.854 L20.6461,15.647 C20.7891,15.503 21.0071,15.46 21.1911,15.538 C21.3781,15.615 21.5001,15.798 21.5001,16 L21.5001,16.5 C21.5001,16.776 21.7241,17 22.0001,17 L24.5001,17 C24.5241,17 24.5461,17.011 24.5701,17.014 C24.8441,16.055 25.0001,15.046 25.0001,14 C25.0001,9.736 22.5571,6.039 19.0001,4.214 L19.0001,4.707 L16.5901,7.118 C16.5321,7.175 16.5001,7.253 16.5001,7.334 L16.5001,9.167 C16.5001,9.511 16.3601,9.847 16.1161,10.09 L14.3401,11.868 C14.0931,12.114 13.7651,12.25 13.4161,12.25 L12.3061,12.25 C12.1371,12.25 12.0001,12.387 12.0001,12.556 C12.0001,13.085 11.6831,13.559 11.1941,13.761 C10.7081,13.964 10.1481,13.855 9.7711,13.479 L8.0841,11.791 C7.9731,11.679 7.8171,11.627 7.6611,11.649 C7.5041,11.671 7.3701,11.763 7.2941,11.901 L5.1151,15.822 L3.0141,13.721 C3.0121,13.814 3.0001,13.906 3.0001,14 Z M14.0001,3 C8.4731,3 3.8971,7.103 3.1271,12.42 L4.8851,14.178 L6.4191,11.416 C6.6491,11.001 7.0521,10.725 7.5211,10.659 C7.9941,10.591 8.4551,10.748 8.7911,11.084 L10.4781,12.772 C10.6091,12.902 10.7561,12.862 10.8111,12.837 C10.8681,12.814 11.0001,12.74 11.0001,12.556 C11.0001,11.836 11.5861,11.25 12.3061,11.25 L13.4161,11.25 C13.4971,11.25 13.5761,11.217 13.6341,11.16 L15.4101,9.382 C15.4681,9.325 15.5001,9.247 15.5001,9.167 L15.5001,7.334 C15.5001,6.989 15.6401,6.653 15.8841,6.41 L18.0001,4.293 L18.0001,3.764 C16.7591,3.277 15.4121,3 14.0001,3 Z M14.0001,2 C20.6171,2 26.0001,7.383 26.0001,14 C26.0001,20.617 20.6171,26 14.0001,26 C7.3831,26 2.0001,20.617 2.0001,14 C2.0001,13.573 2.0241,13.151 2.0681,12.735 C1.9651,12.546 1.9861,12.307 2.1461,12.147 C2.1501,12.143 2.1551,12.142 2.1591,12.138 C3.0581,6.404 8.0171,2 14.0001,2 Z M17.3535,13.3535 C17.2555,13.4515 17.1275,13.4995 16.9995,13.4995 C16.8725,13.4995 16.7445,13.4515 16.6465,13.3535 C16.4515,13.1585 16.4515,12.8415 16.6465,12.6465 L18.5605,10.7325 C18.8435,10.4485 18.9995,10.0725 18.9995,9.6715 L18.9995,8.4995 C18.9995,8.2235 19.2235,7.9995 19.4995,7.9995 C19.7765,7.9995 19.9995,8.2235 19.9995,8.4995 L19.9995,9.6715 C19.9995,10.3395 19.7405,10.9675 19.2675,11.4395 L17.3535,13.3535 Z M10,16.293 L11.354,17.647 C11.549,17.842 11.549,18.158 11.354,18.354 C11.256,18.451 11.128,18.5 11,18.5 C10.872,18.5 10.744,18.451 10.646,18.354 L9.146,16.854 C9.053,16.76 9,16.633 9,16.5 L9,15.5 C9,15.224 9.224,15 9.5,15 C9.776,15 10,15.224 10,15.5 L10,16.293 Z M15,19 C15.276,19 15.5,19.224 15.5,19.5 C15.5,19.776 15.276,20 15,20 L13,20 C12.724,20 12.5,19.776 12.5,19.5 C12.5,19.224 12.724,19 13,19 L15,19 Z M13.25,17 C12.836,17 12.5,16.664 12.5,16.25 C12.5,15.836 12.836,15.5 13.25,15.5 C13.664,15.5 14,15.836 14,16.25 C14,16.664 13.664,17 13.25,17 Z"/>
</svg>
