<svg xmlns="http://www.w3.org/2000/svg" width="28" height="28" viewBox="0 0 28 28">
  <path fill="#ffffff" fill-rule="evenodd" d="M14,25 C15.628,25 17.242,24.636 18.707,23.94 L17.406,22.64 C17.138,22.345 17,21.986 17,21.613 L17,19.914 C17,19.52 17.16,19.133 17.439,18.854 L20.646,15.646 C20.789,15.504 21.007,15.462 21.191,15.538 C21.378,15.615 21.5,15.798 21.5,16 L21.5,16.5 C21.5,16.775 21.725,17 22,17 L24.582,17 C24.859,16.023 25,15.016 25,14 C25,9.838 22.669,6.071 19,4.2 L19,4.5 L19,4.707 L16.59,7.118 C16.532,7.175 16.5,7.253 16.5,7.333 L16.5,9.167 C16.5,9.511 16.36,9.847 16.116,10.09 L14.34,11.867 C14.093,12.114 13.765,12.25 13.416,12.25 L12.306,12.25 C12.137,12.25 12,12.387 12,12.556 C12,13.086 11.684,13.56 11.194,13.762 C10.708,13.965 10.147,13.854 9.771,13.479 L8.084,11.791 C7.973,11.68 7.817,11.631 7.661,11.649 C7.504,11.672 7.37,11.764 7.294,11.901 L7.294,11.902 L6.224,13.829 L5.437,15.243 L5.437,15.244 L5.115,15.822 L4.646,15.354 L3.005,13.712 C3.002,13.81 3,13.906 3,14 C3,20.065 7.935,25 14,25 Z M19,3.098 C23.261,5.053 26,9.292 26,14 C26,15.24 25.808,16.47 25.43,17.652 C24.493,20.582 22.49,23.017 19.79,24.508 C19.789,24.509 19.789,24.51 19.788,24.51 C18.022,25.484 16.021,26 14,26 C7.383,26 2,20.617 2,14 C2,13.625 2.028,13.219 2.074,12.781 L2.069,12.776 L2.099,12.534 C2.832,6.529 7.948,2 14,2 C15.627,2 17.205,2.321 18.694,2.955 C18.695,2.955 18.695,2.955 18.696,2.955 L18.705,2.959 L19,3.084 L19,3.098 Z M13.25,17 C12.836,17 12.5,16.664 12.5,16.25 C12.5,15.836 12.836,15.5 13.25,15.5 C13.664,15.5 14,15.836 14,16.25 C14,16.664 13.664,17 13.25,17 Z M17.3535,13.3535 C17.2555,13.4515 17.1275,13.4995 16.9995,13.4995 C16.8725,13.4995 16.7445,13.4515 16.6465,13.3535 C16.4515,13.1585 16.4515,12.8415 16.6465,12.6465 L18.5605,10.7325 C18.8435,10.4495 18.9995,10.0725 18.9995,9.6715 L18.9995,8.4995 C18.9995,8.2235 19.2235,7.9995 19.4995,7.9995 C19.7765,7.9995 19.9995,8.2235 19.9995,8.4995 L19.9995,9.6715 C19.9995,10.3385 19.7405,10.9665 19.2675,11.4395 L17.3535,13.3535 Z M10,16.293 L11.354,17.647 C11.549,17.842 11.549,18.158 11.354,18.354 C11.256,18.451 11.128,18.5 11,18.5 C10.872,18.5 10.744,18.451 10.646,18.354 L9.146,16.854 C9.053,16.76 9,16.633 9,16.5 L9,15.5 C9,15.224 9.224,15 9.5,15 C9.776,15 10,15.224 10,15.5 L10,16.293 Z M15,19 C15.276,19 15.5,19.224 15.5,19.5 C15.5,19.776 15.276,20 15,20 L13,20 C12.724,20 12.5,19.776 12.5,19.5 C12.5,19.224 12.724,19 13,19 L15,19 Z"/>
</svg>
