<svg xmlns="http://www.w3.org/2000/svg" width="28" height="28" viewBox="0 0 28 28">
  <path fill="#898B92" fill-rule="evenodd" d="M14.0241,2.4998 L25.0491,10.1918 L24.4771,11.0128 L14.0241,3.7188 L3.5721,11.0128 L3.0001,10.1918 L14.0241,2.4998 Z M21.0243,11.5088 L22.0243,11.5088 L22.0243,25.0088 L17.0243,25.0088 L11.0243,25.0088 L6.0243,25.0088 L6.0243,11.5088 L7.0243,11.5088 L7.0243,24.0088 L11.0243,24.0088 L11.0243,18.0088 L17.0243,18.0088 L17.0243,24.0088 L21.0243,24.0088 L21.0243,11.5088 Z M12.0243,24.0088 L16.0253,24.0088 L16.0253,19.0088 L12.0243,19.0088 L12.0243,24.0088 Z M13.525,13.0088 L13.525,10.0078 L14.525,10.0078 L14.525,13.0088 L13.525,13.0088 Z"/>
</svg>
